<?xml version="1.0" encoding="utf-8"?>
<!-- Generator: Adobe Illustrator 24.1.1, SVG Export Plug-In . SVG Version: 6.00 Build 0)  -->
<svg version="1.1" id="Слой_1" xmlns="http://www.w3.org/2000/svg" xmlns:xlink="http://www.w3.org/1999/xlink" x="0px" y="0px"
	 viewBox="0 0 874.29 739.82" style="enable-background:new 0 0 874.29 739.82;" xml:space="preserve">
<style type="text/css">
	.st0{fill:#F6D2A2;stroke:#000000;stroke-width:0.25;stroke-miterlimit:10;}
	.st1{fill:#74CDDD;stroke:#000000;stroke-width:0.25;stroke-miterlimit:10;}
	.st2{stroke:#000000;stroke-width:0.25;stroke-miterlimit:10;}
	.st3{fill:#FFFFFF;stroke:#000000;stroke-width:0.25;stroke-miterlimit:10;}
	.st4{fill:#010101;}
	.st5{fill:#FFFFFF;}
	.st6{fill:none;stroke:#000000;stroke-width:0.25;stroke-miterlimit:10;}
	.st7{opacity:0.4;}
	.st8{fill:#CCCCCC;}
	.st9{opacity:0.3;fill:#FFFFFF;}
	.st10{opacity:0.3;fill:none;stroke:#FFFFFF;stroke-width:16;stroke-linecap:round;stroke-miterlimit:10;}
</style>
<path class="st0" d="M834.46,312.14c8.01,5.25,22.69,21.12,10.66,28.82c-11.54,11.2-18.06-12.31-28.22-15.52
	C820.84,318.71,827.16,313.92,834.46,312.14z"/>
<path class="st0" d="M743.18,332.85c-8.97,1.44-14.01,9.98-21.46,14.3c-2.64,2.58-6.76,2.4-9.2-0.39c-0.56-0.64-1-1.4-1.3-2.22
	c-1.06,0.03-2.06-0.46-2.73-1.33c-6.51-11.09,6.77-18.79,13.75-24.23C732.06,316.99,738.09,325.81,743.18,332.85L743.18,332.85z"/>
<path class="st1" d="M827.76,76.62c3.33-2.08,9.09-4.88,16.22-4.53c2.95,0.15,6.37,0.32,8.91,2.72c2.13,2.02,2.46,5.73,3.01,13.07
	c1.18,15.49,1.2,17.35-0.25,19.99c-1.04,1.89-3.27,4.97-8.27,7.36L827.76,76.62z"/>
<ellipse class="st2" cx="845.66" cy="94.43" rx="7.36" ry="7.78"/>
<path class="st1" d="M696.34,122.7c-1.64-4.96-2.45-9.22-2.88-12.35c0,0-1.08-7.76-0.1-21.59c0.16-2.26,0.26-1.92,0.47-4.73
	c0.18-2.48,0.13-3.11,0.59-3.82c0.4-0.62,1.5-1.6,5.41-1.81c6.87-0.38,13,2.5,16.66,4.65L696.34,122.7z"/>
<ellipse class="st2" cx="701.47" cy="102.21" rx="8.16" ry="8.62"/>
<path class="st1" d="M773.59,60.83c14.18-0.57,39.33-1.59,58.79,15.29c8.86,7.69,13.55,16.5,15.65,20.53
	c5.07,9.74,7.36,19.33,8.98,41.21c1.77,23.87,0.59,33.3,1.01,70.13c0.03,2.68,0.17,14.43,0.33,30.94c0.06,6.12,0.09,9.18,0.09,10.09
	c0.02,4.69,0.17,36.87-7.91,54.62c-12.31,27.06-52.01,38.81-81.34,37.43c-7.3-0.34-49.04-3.14-65.57-31.88
	c-5.51-9.58-6.33-21.11-7.75-43.79c-1.43-22.87,0.27-31.75,0.62-52.62c0.78-46.19-11.94-68.73,1.91-105.27
	c2.75-7.27,6.03-15.68,13.79-24.12C731.39,62.54,759.73,61.39,773.59,60.83z"/>
<g>
	<ellipse class="st3" cx="739.75" cy="111.98" rx="28.87" ry="28.63"/>
	<ellipse class="st3" cx="811.3" cy="108.4" rx="28.87" ry="28.63"/>
	<ellipse class="st4" cx="808.09" cy="95.87" rx="8.32" ry="9.7"/>
	<ellipse class="st5" cx="810.59" cy="92.8" rx="1.95" ry="2.46"/>
	<ellipse class="st4" cx="739.98" cy="98.08" rx="8.47" ry="9.7"/>
	<ellipse class="st5" cx="741.16" cy="94.43" rx="2" ry="2.46"/>
	<path class="st3" d="M790.16,151.77c-0.68-0.76-0.99-0.36-5.3-1.42c-3.43-0.85-5.15-1.27-5.6-1.57c-0.21-0.14-0.83-0.6-1.2-0.37
		c-0.33,0.2-0.32,0.85-0.31,1.17c0.04,1.47-0.05,2.94,0.03,4.41c0.01,0.18,0.02,1.39,0.05,3.82c0.02,1.56,0.01,1.49,0.03,2.41
		c0.06,4.29,0.15,4.83,0.27,5.33c0.24,1,0.52,2.11,1.42,3.14c1.25,1.43,2.86,1.74,3.9,1.95c1.19,0.23,2.36,0.46,3.54-0.15
		c1.16-0.6,1.67-1.67,2.41-3.22c0.94-1.97,1.24-3.67,1.49-5.09c0.47-2.73,0.39-4.79,0.35-5.39
		C791.1,154.07,791.03,152.72,790.16,151.77z"/>
	<path class="st3" d="M765.56,151.51c0.68-0.76,0.99-0.36,5.3-1.42c3.43-0.85,5.15-1.27,5.6-1.57c0.23-0.16,0.87-0.61,1.2-0.37
		c0.32,0.22,0.2,0.93,0.14,1.42c-0.18,1.43,0,2.88-0.03,4.32c-0.03,1.72,0,3.11,0.03,3.98c0.03,1.12,0.05,1.07,0.08,2.24
		c0.08,2.82,0.12,4.25-0.13,5.22c-0.17,0.66-0.52,1.94-1.58,3.09c-1.33,1.44-2.95,1.76-3.9,1.95c-1.19,0.23-2.36,0.46-3.54-0.15
		c-1.16-0.6-1.67-1.67-2.41-3.22c-0.94-1.97-1.24-3.67-1.49-5.09c-0.47-2.73-0.39-4.79-0.35-5.39
		C764.62,153.82,764.7,152.47,765.56,151.51z"/>
	<path class="st0" d="M756.54,147.01c0.05-0.92,0.2-3.17,1.63-5.31c0.69-1.03,1.44-1.69,1.91-2.09c0.6-0.51,1.89-1.53,3.75-2.17
		c1.56-0.54,2.81-0.57,4.18-0.6c5.19-0.1,7.42-0.08,9.07-0.15c3.46-0.14,3.43-0.73,7.08-0.9c3.41-0.16,5.01,0.18,6.23,0.6
		c1.69,0.57,2.84,1.35,3.82,2.02c1.04,0.7,2.97,2.04,4.75,4.49c0.95,1.32,1.54,2.08,1.91,3.37c0.75,2.62-0.06,4.89-0.28,5.46
		c-0.26,0.66-1.19,2.81-3.47,4.12c-2.04,1.17-3.99,0.99-4.82,0.9c-1.07-0.11-1.11-0.33-4.75-1.65c-2.16-0.78-2.3-0.76-4.04-1.42
		c-2.79-1.05-2.96-1.38-4.06-1.66c-2.4-0.62-5.02,0.19-5.95,0.56c-2.07,0.82-1.78,1.38-4.17,2.49c-1.17,0.54-2.81,1.28-4.96,1.35
		c-1.37,0.04-3.52,0.1-5.31-1.35C756.23,152.75,756.47,148.34,756.54,147.01z"/>
	<path class="st4" d="M765.73,138.8c-0.52-12.56,22.21-14.17,24.88-3.62C793.27,145.73,766.82,148.14,765.73,138.8z"/>
	<path class="st3" d="M777.94,157.65"/>
</g>
<g>
	<path class="st0" d="M724.29,199.96c-2.7,8.89,10.75,20.71,19.18,24.04c1.29,0.51,4.16,1.49,7.59,0.89
		c3.93-0.69,5.8-2.96,6.12-3.59c0.29-0.57,0.42-1.17,0.42-1.17c0.09-0.44,0.11-0.82,0.11-1.11c0.04-1.53-0.36-2.19-0.74-2.5
		c0,0-0.14-0.11-1.37-0.72c0,0,0.02-0.01,0.9-0.39c0.12-0.09,0.26-0.18,0.42-0.26c0.07-0.04,0.14-0.07,0.21-0.1
		c0.24-0.09,0.55-0.26,0.8-0.58c0.34-0.44,0.58-2.23-0.05-3.56c-0.94-1.98-3.44-2.3-7.65-3.14c-4.9-0.99-7.35-1.48-8.64-2
		c-7.49-3.03-8.38-11.23-12.43-10.91C726.9,195.02,724.98,197.7,724.29,199.96z"/>
	<path class="st6" d="M755.88,215.66c-0.71,0.24-1.87,0.52-3.31,0.42c-1.25-0.09-2.25-0.43-2.9-0.72"/>
</g>
<g>
	<path class="st0" d="M829.16,199.96c2.7,8.89-10.75,20.71-19.18,24.04c-1.29,0.51-4.16,1.49-7.59,0.89
		c-3.93-0.69-5.8-2.96-6.12-3.59c-0.29-0.57-0.42-1.17-0.42-1.17c-0.09-0.44-0.11-0.82-0.11-1.11c-0.04-1.53,0.36-2.19,0.74-2.5
		c0,0,0.14-0.11,1.37-0.72c0,0-0.02-0.01-0.9-0.39c-0.12-0.09-0.26-0.18-0.42-0.26c-0.07-0.04-0.14-0.07-0.21-0.1
		c-0.24-0.09-0.55-0.26-0.8-0.58c-0.34-0.44-0.58-2.23,0.05-3.56c0.94-1.98,3.44-2.3,7.65-3.14c4.9-0.99,7.35-1.48,8.64-2
		c7.49-3.03,8.38-11.23,12.43-10.91C826.56,195.02,828.47,197.7,829.16,199.96z"/>
	<path class="st6" d="M797.57,215.66c0.71,0.24,1.87,0.52,3.31,0.42c1.25-0.09,2.25-0.43,2.9-0.72"/>
</g>
<path class="st0" d="M137.35,698.87c-5.42,7.89-21.59,22.24-29.04,10.04c-10.95-11.78,12.69-17.79,16.11-27.88
	C131.07,685.12,135.72,691.54,137.35,698.87z"/>
<path class="st0" d="M118.59,607.17c-1.25-9-9.68-14.22-13.84-21.76c-2.52-2.69-2.26-6.81,0.58-9.19c0.66-0.55,1.42-0.97,2.24-1.25
	c0-1.06,0.51-2.05,1.39-2.7c11.22-6.27,18.65,7.17,23.93,14.26C134.68,596.39,125.74,602.23,118.59,607.17L118.59,607.17z"/>
<path class="st1" d="M372.96,697.17c0.48,0.54,6.87,8.03,4.19,16.31c-0.22,0.69-1.52,4.51-5.18,7.18
	c-1.16,0.85-3.18,2.03-15.13,3.44c-4.23,0.5-6.34,0.75-7.22,0.69c-2.72-0.18-8.86-1.26-15.67-8.82L372.96,697.17z"/>
<ellipse transform="matrix(0.0212 -0.9998 0.9998 0.0212 -367.2909 1054.2145)" class="st2" cx="354.77" cy="714.69" rx="7.36" ry="7.78"/>
<path class="st1" d="M329.69,564.81c3.64-1.56,9.47-3.59,16.84-4.03c3.52-0.21,23.53-1.39,27.39,8.46
	c2.54,6.5-3.28,14.36-5.01,16.56L329.69,564.81z"/>
<ellipse transform="matrix(0.0212 -0.9998 0.9998 0.0212 -227.6145 908.2397)" class="st2" cx="350.06" cy="570.37" rx="8.16" ry="8.62"/>
<path class="st1" d="M389.9,643.35c0.27,13.96,0.75,39.07-16.54,58.45c-1.41,1.58-8.7,9.44-20.86,15.21
	c-10.76,5.1-20.05,6.05-37.84,6.67c-14.43,0.51-31.61,0.7-71.63-0.26c-4.66-0.11-16.22-0.4-31.98-0.57
	c-6.76-0.07-10.48-0.08-12.38-0.1c-7.65-0.08-37.07-0.39-53.18-7.64c-26.26-11.82-37.51-51.54-35.7-82.12
	c1.4-23.63,10.06-52.02,33.27-64.88c27.19-15.11,66.79-6.85,96.54-5.07c44.67,2.67,70.66-9.16,105.21,4.14
	c10.31,3.97,17.53,8.27,23.82,14.3C389.09,601.12,389.63,629.48,389.9,643.35z"/>
<g>
	
		<ellipse transform="matrix(0.0212 -0.9998 0.9998 0.0212 -276.0273 934.9164)" class="st3" cx="339.48" cy="608.43" rx="28.87" ry="28.63"/>
	
		<ellipse transform="matrix(0.0212 -0.9998 0.9998 0.0212 -345.6031 1007.059)" class="st3" cx="341.54" cy="680.04" rx="28.87" ry="28.63"/>
	
		<ellipse transform="matrix(0.0212 -0.9998 0.9998 0.0212 -330.3352 1016.7795)" class="st4" cx="354.13" cy="677.1" rx="8.32" ry="9.7"/>
	
		<ellipse transform="matrix(0.0212 -0.9998 0.9998 0.0212 -329.9384 1022.3008)" class="st5" cx="357.15" cy="679.66" rx="1.95" ry="2.46"/>
	
		<ellipse transform="matrix(0.0212 -0.9998 0.9998 0.0212 -262.9507 949.3147)" class="st4" cx="353.37" cy="608.95" rx="8.47" ry="9.7"/>
	
		<ellipse transform="matrix(0.0212 -0.9998 0.9998 0.0212 -260.6638 954.1723)" class="st5" cx="356.99" cy="610.22" rx="2" ry="2.46"/>
	<path class="st3" d="M298.63,657.99c0.77-0.67,0.38-0.98,1.54-5.27c0.92-3.41,1.38-5.12,1.69-5.56c0.14-0.2,0.62-0.81,0.4-1.2
		c-0.2-0.34-0.84-0.34-1.16-0.33c-1.47,0-2.94-0.11-4.4-0.07c-0.18,0.01-1.39-0.01-3.82-0.03c-1.56-0.01-1.49-0.02-2.41-0.02
		c-4.29-0.03-4.83,0.05-5.34,0.16c-1,0.22-2.12,0.47-3.17,1.35c-1.45,1.22-1.8,2.83-2.03,3.85c-0.26,1.18-0.51,2.35,0.07,3.54
		c0.58,1.17,1.64,1.71,3.17,2.48c1.95,0.98,3.64,1.32,5.06,1.6c2.72,0.53,4.78,0.49,5.38,0.47
		C296.3,658.87,297.66,658.83,298.63,657.99z"/>
	<path class="st3" d="M299.4,633.4c0.74,0.7,0.34,0.99,1.31,5.33c0.77,3.45,1.16,5.17,1.45,5.63c0.15,0.24,0.59,0.88,0.35,1.21
		c-0.23,0.31-0.94,0.18-1.42,0.11c-1.42-0.21-2.88-0.06-4.32-0.12c-1.72-0.07-3.1-0.06-3.98-0.06c-1.12,0-1.07,0.02-2.25,0.03
		c-2.82,0.02-4.25,0.03-5.21-0.24c-0.65-0.18-1.93-0.56-3.05-1.64c-1.41-1.36-1.7-2.99-1.86-3.94c-0.21-1.19-0.41-2.37,0.22-3.54
		c0.63-1.15,1.71-1.64,3.27-2.34c1.99-0.9,3.69-1.17,5.12-1.38c2.74-0.41,4.8-0.28,5.39-0.24
		C297.12,632.41,298.47,632.51,299.4,633.4z"/>
	<path class="st0" d="M304.1,624.48c0.92,0.07,3.17,0.27,5.28,1.74c1.02,0.71,1.66,1.48,2.05,1.96c0.5,0.61,1.49,1.93,2.09,3.8
		c0.51,1.57,0.51,2.83,0.51,4.19c-0.01,5.19-0.07,7.42-0.04,9.07c0.06,3.46,0.66,3.44,0.75,7.1c0.08,3.41-0.29,5-0.73,6.22
		c-0.61,1.67-1.41,2.81-2.1,3.78c-0.72,1.02-2.1,2.93-4.59,4.65c-1.34,0.92-2.11,1.5-3.41,1.84c-2.64,0.7-4.89-0.17-5.45-0.4
		c-0.65-0.27-2.78-1.25-4.04-3.56c-1.12-2.06-0.9-4.01-0.8-4.83c0.14-1.07,0.35-1.1,1.75-4.71c0.83-2.14,0.81-2.28,1.51-4.01
		c1.11-2.77,1.44-2.93,1.75-4.03c0.67-2.39-0.08-5.03-0.43-5.96c-0.78-2.08-1.34-1.8-2.4-4.22c-0.52-1.18-1.22-2.84-1.24-4.99
		c-0.01-1.37-0.03-3.53,1.46-5.28C298.37,624.04,302.77,624.38,304.1,624.48z"/>
	<path class="st4" d="M312.11,633.83c12.57-0.26,13.7,22.51,3.09,24.95S302.75,634.73,312.11,633.83z"/>
	<path class="st3" d="M293.01,645.65"/>
</g>
<g>
	<path class="st0" d="M251.84,591.11c-8.83-2.88-20.93,10.31-24.44,18.66c-0.54,1.28-1.58,4.12-1.05,7.57
		c0.6,3.94,2.84,5.86,3.46,6.2c0.57,0.3,1.16,0.45,1.16,0.45c0.43,0.1,0.82,0.13,1.11,0.13c1.53,0.07,2.19-0.31,2.52-0.68
		c0,0,0.11-0.13,0.75-1.35c0,0,0.01,0.02,0.37,0.9c0.09,0.12,0.17,0.26,0.25,0.42c0.04,0.07,0.07,0.14,0.1,0.21
		c0.09,0.24,0.25,0.56,0.57,0.81c0.43,0.35,2.22,0.63,3.56,0.02c2-0.9,2.37-3.39,3.31-7.58c1.09-4.88,1.64-7.32,2.19-8.6
		c3.19-7.42,11.4-8.14,11.17-12.2C256.73,593.82,254.09,591.85,251.84,591.11z"/>
	<path class="st6" d="M235.48,622.36c-0.22-0.72-0.48-1.88-0.35-3.31c0.11-1.25,0.48-2.24,0.78-2.88"/>
</g>
<g>
	<path class="st0" d="M249.62,695.95c-8.94,2.51-20.48-11.19-23.63-19.68c-0.48-1.3-1.4-4.19-0.73-7.6
		c0.77-3.91,3.08-5.74,3.72-6.05c0.58-0.28,1.18-0.4,1.18-0.4c0.44-0.09,0.82-0.09,1.12-0.08c1.53-0.01,2.18,0.4,2.49,0.79
		c0,0,0.11,0.14,0.69,1.38c0,0,0.01-0.02,0.41-0.89c0.09-0.12,0.18-0.25,0.27-0.41c0.04-0.07,0.07-0.14,0.1-0.2
		c0.1-0.24,0.28-0.55,0.6-0.79c0.44-0.33,2.24-0.53,3.56,0.13c1.96,0.98,2.22,3.49,2.98,7.72c0.88,4.92,1.33,7.38,1.82,8.68
		c2.87,7.55,11.05,8.61,10.64,12.66C254.61,693.46,251.89,695.31,249.62,695.95z"/>
	<path class="st6" d="M234.6,664.04c-0.25,0.71-0.56,1.86-0.49,3.3c0.06,1.25,0.39,2.26,0.66,2.91"/>
</g>
<path class="st0" d="M631.83,618.07c-7.86-4.56-17.16-1.14-25.67-2.51c-3.67,0.32-6.75-2.42-6.87-6.12
	c-0.03-0.86,0.11-1.72,0.4-2.54c-0.83-0.65-1.3-1.67-1.27-2.76c1.98-12.7,17.14-10.26,25.98-10.05
	C633.26,598.76,632.35,609.4,631.83,618.07L631.83,618.07z"/>
<path class="st0" d="M684.67,688.72c-4.54,7.87-14.32,9.54-21.01,14.96c-3.35,1.55-4.65,5.46-2.91,8.73
	c0.4,0.76,0.95,1.44,1.61,2.01c-0.4,0.98-0.3,2.09,0.27,3.02c8.04,10.03,19.97,0.37,27.54-4.21
	C695.52,704.77,689.43,695.99,684.67,688.72z"/>
<path class="st1" d="M829.37,460.43c2.91-1.88,8.76-5.01,16.22-4.53c2.53,0.16,9.98,0.64,12.38,5.25c1.29,2.48-0.05,3.91-0.5,10.58
	c-0.52,7.65,1.02,9.02,0.34,13.41c-0.56,3.6-2.51,8.52-8.82,13.9L829.37,460.43z"/>
<ellipse class="st2" cx="847.27" cy="478.24" rx="7.36" ry="7.78"/>
<path class="st1" d="M697.95,506.5c-2.66-5.29-3.36-9.66-3.46-12.77c-0.13-3.55,0.52-5.11,0.34-10.66c-0.16-5.02-0.73-5.31-0.69-8.6
	c0.04-2.94,0.15-10.2,3.78-13.07c3.99-3.15,12.51-1.19,20.18,5.44L697.95,506.5z"/>
<ellipse class="st2" cx="703.08" cy="486.02" rx="8.16" ry="8.62"/>
<path class="st1" d="M775.2,444.63c14.45-0.59,39.15-1.59,58.79,15.29c9.23,7.94,13.74,16.73,15.65,20.53
	c0.92,1.85,1.72,3.64,2.39,5.61c5.66,16.57,3.93,42.66,2.92,54.08c-2.53,28.57-3.86,43.09-7.45,54.67
	c-3.84,12.4-8.93,22.92-9.82,24.75c-0.51,1.04-4.75,9.14-10.14,18.01c-6.83,11.24-20.17,29.2-38.15,43.78
	c-10.85,8.79-33.08,26.99-64.18,30.72c-29.58,3.54-81.58-3.6-101.78-45.39c-14.5-29.99-9.24-70.87,12.38-89.86
	c19.66-17.27,40.93-5.96,53.13-24.35c10.43-15.73-1.35-29.71,11.08-61.14c2.99-7.56,6.27-15.86,13.79-24.12
	C732.81,446.35,761.12,445.21,775.2,444.63z"/>
<g>
	<ellipse class="st3" cx="741.36" cy="495.79" rx="28.87" ry="28.63"/>
	<ellipse class="st3" cx="812.91" cy="492.21" rx="28.87" ry="28.63"/>
	<ellipse class="st4" cx="809.7" cy="479.68" rx="8.32" ry="9.7"/>
	<ellipse class="st5" cx="812.2" cy="476.6" rx="1.95" ry="2.46"/>
	<ellipse class="st4" cx="741.59" cy="481.89" rx="8.47" ry="9.7"/>
	<ellipse class="st5" cx="742.77" cy="478.24" rx="2" ry="2.46"/>
	<path class="st3" d="M791.77,535.57c-0.68-0.76-0.99-0.36-5.3-1.42c-3.43-0.85-5.15-1.27-5.6-1.57c-0.21-0.14-0.83-0.6-1.2-0.37
		c-0.33,0.2-0.32,0.85-0.31,1.17c0.04,1.47-0.05,2.94,0.03,4.41c0.01,0.18,0.02,1.39,0.05,3.82c0.02,1.56,0.01,1.49,0.03,2.41
		c0.06,4.29,0.15,4.83,0.27,5.33c0.24,1,0.52,2.11,1.42,3.14c1.25,1.43,2.86,1.74,3.9,1.95c1.19,0.23,2.36,0.46,3.54-0.15
		c1.16-0.6,1.67-1.67,2.41-3.22c0.94-1.97,1.24-3.67,1.49-5.09c0.47-2.73,0.39-4.79,0.35-5.39
		C792.71,537.88,792.64,536.53,791.77,535.57z"/>
	<path class="st3" d="M767.17,535.32c0.68-0.76,0.99-0.36,5.3-1.42c3.43-0.85,5.15-1.27,5.6-1.57c0.23-0.16,0.87-0.61,1.2-0.37
		c0.32,0.22,0.2,0.93,0.14,1.42c-0.18,1.43,0,2.88-0.03,4.32c-0.03,1.72,0,3.11,0.03,3.98c0.03,1.12,0.05,1.07,0.08,2.24
		c0.08,2.82,0.12,4.25-0.13,5.22c-0.17,0.66-0.52,1.94-1.58,3.09c-1.33,1.44-2.95,1.76-3.9,1.95c-1.19,0.23-2.36,0.46-3.54-0.15
		c-1.16-0.6-1.67-1.67-2.41-3.22c-0.94-1.97-1.24-3.67-1.49-5.09c-0.47-2.73-0.39-4.79-0.35-5.39
		C766.24,537.63,766.31,536.28,767.17,535.32z"/>
	<path class="st0" d="M758.16,530.82c0.05-0.92,0.2-3.17,1.63-5.31c0.69-1.03,1.44-1.69,1.91-2.09c0.6-0.51,1.89-1.53,3.75-2.17
		c1.56-0.54,2.81-0.57,4.18-0.6c5.19-0.1,7.42-0.08,9.07-0.15c3.46-0.14,3.43-0.73,7.08-0.9c3.41-0.16,5.01,0.18,6.23,0.6
		c1.69,0.57,2.84,1.35,3.82,2.02c1.04,0.7,2.97,2.04,4.75,4.49c0.95,1.32,1.54,2.08,1.91,3.37c0.75,2.62-0.06,4.89-0.28,5.46
		c-0.26,0.66-1.19,2.81-3.47,4.12c-2.04,1.17-3.99,0.99-4.82,0.9c-1.07-0.11-1.11-0.33-4.75-1.65c-2.16-0.78-2.3-0.76-4.04-1.42
		c-2.79-1.05-2.96-1.38-4.06-1.66c-2.4-0.62-5.02,0.19-5.95,0.56c-2.07,0.82-1.78,1.38-4.17,2.49c-1.17,0.54-2.81,1.28-4.96,1.35
		c-1.37,0.04-3.52,0.1-5.31-1.35C757.84,536.55,758.08,532.15,758.16,530.82z"/>
	<path class="st4" d="M767.34,522.61c-0.52-12.56,22.21-14.17,24.88-3.62C794.88,529.54,768.43,531.95,767.34,522.61z"/>
	<path class="st3" d="M779.55,541.45"/>
</g>
<g>
	<path class="st0" d="M725.91,583.77c-2.7,8.89,10.75,20.71,19.18,24.04c1.29,0.51,4.16,1.49,7.59,0.89
		c3.93-0.69,5.8-2.96,6.12-3.59c0.29-0.57,0.42-1.17,0.42-1.17c0.09-0.44,0.11-0.82,0.11-1.11c0.04-1.53-0.36-2.19-0.74-2.5
		c0,0-0.14-0.11-1.37-0.72c0,0,0.02-0.01,0.9-0.39c0.12-0.09,0.26-0.18,0.42-0.26c0.07-0.04,0.14-0.07,0.21-0.1
		c0.24-0.09,0.55-0.26,0.8-0.58c0.34-0.44,0.58-2.23-0.05-3.56c-0.94-1.98-3.44-2.3-7.65-3.14c-4.9-0.99-7.35-1.48-8.64-2
		c-7.49-3.03-8.38-11.23-12.43-10.91C728.51,578.83,726.59,581.51,725.91,583.77z"/>
	<path class="st6" d="M757.5,599.47c-0.71,0.24-1.87,0.52-3.31,0.42c-1.25-0.09-2.25-0.43-2.9-0.72"/>
</g>
<g>
	<path class="st0" d="M830.77,583.77c2.7,8.89-10.75,20.71-19.18,24.04c-1.29,0.51-4.16,1.49-7.59,0.89
		c-3.93-0.69-5.8-2.96-6.12-3.59c-0.29-0.57-0.42-1.17-0.42-1.17c-0.09-0.44-0.11-0.82-0.11-1.11c-0.04-1.53,0.36-2.19,0.74-2.5
		c0,0,0.14-0.11,1.37-0.72c0,0-0.02-0.01-0.9-0.39c-0.12-0.09-0.26-0.18-0.42-0.26c-0.07-0.04-0.14-0.07-0.21-0.1
		c-0.24-0.09-0.55-0.26-0.8-0.58c-0.34-0.44-0.58-2.23,0.05-3.56c0.94-1.98,3.44-2.3,7.65-3.14c4.9-0.99,7.35-1.48,8.64-2
		c7.49-3.03,8.38-11.23,12.43-10.91C828.17,578.83,830.08,581.51,830.77,583.77z"/>
	<path class="st6" d="M799.18,599.47c0.71,0.24,1.87,0.52,3.31,0.42c1.25-0.09,2.25-0.43,2.9-0.72"/>
</g>
<path class="st1" d="M709.11,724.99"/>
<g class="st7">
	<path class="st5" d="M96.96,640.42c176.86,1.42,353.73,2.84,530.59,4.26c27.44,1.76,88.45,1.8,122.65-38.28
		c22.27-26.1,23.87-58.33,24.47-74.66c2.99-82.21,4.05-237.04,0-437.15"/>
	<path class="st8" d="M644.58,726.75c-6.51,0-13.12-0.19-19.82-0.58l-528.45-4.24c-45.02-0.36-81.22-37.15-80.86-82.17
		c0.36-44.79,36.79-80.86,81.5-80.86c0.23,0,0.44,0,0.67,0l532.88,4.28l2.28,0.15c32.71,2.1,51.06-4.73,55.41-9.84
		c4.31-5.05,4.81-18.83,5.02-24.71c2.71-74.45,4.12-227.17-0.04-432.54c-0.91-45.01,34.84-82.24,79.85-83.15
		c0.56-0.01,1.12-0.02,1.68-0.02c44.25,0,80.57,35.42,81.47,79.87c3.59,177.3,3.57,342.45-0.04,441.76
		c-0.76,20.89-2.78,76.38-43.92,124.6c-26.46,31.01-64.23,52.35-109.25,61.73C684.68,724.84,665.12,726.75,644.58,726.75z"/>
</g>
<path class="st9" d="M708.63,697.34H104.82c-4.32,0-7.86-3.54-7.86-7.86l0,0c0-4.32,3.54-7.86,7.86-7.86h603.81
	c4.32,0,7.86,3.54,7.86,7.86l0,0C716.5,693.8,712.96,697.34,708.63,697.34z"/>
<path class="st10" d="M729.07,687.26c0,0,105.39-23.93,109.89-155.28c4.49-131.35,0-449.85,0-449.85"/>
</svg>
