<svg enable-background="new 0 0 828.36 537.5" viewBox="0 0 828.36 537.5" xmlns="http://www.w3.org/2000/svg"><path d="m119.79 492.39c4.85 3.01 13.74 12.1 6.45 16.51-6.98 6.42-10.93-7.05-17.08-8.89 2.39-3.86 6.21-6.6 10.63-7.62z" fill="#f6d2a2" stroke="#000" stroke-miterlimit="10" stroke-width=".25"/><path d="m64.54 504.25c-5.43.83-8.48 5.72-12.99 8.2-1.6 1.48-4.09 1.38-5.57-.22-.34-.37-.61-.8-.79-1.27-.64.02-1.25-.27-1.65-.76-3.94-6.35 4.1-10.77 8.32-13.88 5.95-1.15 9.6 3.9 12.68 7.93z" fill="#f6d2a2" stroke="#000" stroke-miterlimit="10" stroke-width=".25"/><path d="m115.73 357.45c17.37-11.22 33.34 16.18 11.88 22.12z" fill="#74cddd" stroke="#000" stroke-miterlimit="10" stroke-width=".25"/><circle cx="126.57" cy="367.65" r="4.46" stroke="#000" stroke-miterlimit="10" stroke-width=".25"/><path d="m36.19 383.85c-22.05-6.1-5.64-34.25 12.2-22.72z" fill="#74cddd" stroke="#000" stroke-miterlimit="10" stroke-width=".25"/><circle cx="39.3" cy="372.11" r="4.94" stroke="#000" stroke-miterlimit="10" stroke-width=".25"/><path d="m82.95 348.4c18.57 0 35.92 2.57 45.05 20.52 8.13 19.99 5.13 41.56 6.49 62.68 1.08 18.14 3.44 39.1-4.98 55.93-8.8 17.65-31.02 22.04-49.23 21.45-14.32-.51-31.61-5.13-39.69-18.27-9.49-15.39-5-38.17-4.31-55.24.82-20.22-5.49-40.51 1.15-60.32 6.9-20.52 25.48-25.17 45.49-26.76" fill="#74cddd" stroke="#000" stroke-miterlimit="10" stroke-width=".25"/><ellipse cx="62.47" cy="377.71" fill="#fff" rx="17.47" ry="16.41" stroke="#000" stroke-miterlimit="10" stroke-width=".25"/><ellipse cx="105.77" cy="375.66" fill="#fff" rx="17.47" ry="16.41" stroke="#000" stroke-miterlimit="10" stroke-width=".25"/><ellipse cx="105.77" cy="384.27" fill="#010101" rx="5.04" ry="5.56"/><ellipse cx="108.04" cy="385.53" fill="#fff" rx="1.18" ry="1.41"/><ellipse cx="64.54" cy="385.53" fill="#010101" rx="5.12" ry="5.56"/><ellipse cx="66.87" cy="386.8" fill="#fff" rx="1.21" ry="1.41"/><path d="m92.98 400.5c-.41-.43-.6-.21-3.21-.82-2.08-.49-3.12-.73-3.39-.9-.12-.08-.5-.35-.73-.21-.2.12-.19.48-.19.67.02.84-.03 1.68.02 2.52.01.1.01.8.03 2.19.01.89.01.85.02 1.38.04 2.46.09 2.77.17 3.05.15.57.31 1.21.86 1.8.75.82 1.73 1 2.36 1.11.72.13 1.43.27 2.14-.09.7-.34 1.01-.96 1.46-1.84.57-1.13.75-2.1.9-2.92.28-1.56.23-2.75.21-3.09-.09-1.52-.13-2.3-.65-2.85z" fill="#fff" stroke="#000" stroke-miterlimit="10" stroke-width=".25"/><path d="m78.09 400.36c.41-.43.6-.21 3.21-.82 2.08-.49 3.12-.73 3.39-.9.14-.09.52-.35.73-.21.19.13.12.53.09.81-.11.82 0 1.65-.02 2.48-.02.99 0 1.78.02 2.28.02.64.03.61.05 1.29.05 1.62.07 2.43-.08 2.99-.1.38-.31 1.11-.95 1.77-.8.82-1.79 1.01-2.36 1.11-.72.13-1.43.27-2.14-.09-.7-.34-1.01-.96-1.46-1.84-.57-1.13-.75-2.1-.9-2.92-.28-1.56-.23-2.75-.21-3.09.06-1.54.1-2.31.63-2.86z" fill="#fff" stroke="#000" stroke-miterlimit="10" stroke-width=".25"/><path d="m72.63 397.78c.03-.53.12-1.82.99-3.04.42-.59.87-.97 1.16-1.2.36-.29 1.15-.88 2.27-1.24.94-.31 1.7-.33 2.53-.34 3.14-.06 4.49-.05 5.49-.09 2.09-.08 2.08-.42 4.29-.51 2.06-.09 3.03.1 3.77.34 1.02.33 1.72.78 2.31 1.16.63.4 1.8 1.17 2.87 2.57.58.75.93 1.19 1.16 1.93.46 1.5-.04 2.8-.17 3.13-.15.38-.72 1.61-2.1 2.36-1.23.67-2.41.57-2.92.51-.65-.07-.67-.19-2.87-.94-1.3-.45-1.39-.44-2.44-.81-1.69-.6-1.79-.79-2.46-.95-1.45-.35-3.04.11-3.6.32-1.25.47-1.07.79-2.52 1.43-.71.31-1.7.74-3 .77-.83.02-2.13.06-3.22-.77-1.73-1.34-1.58-3.87-1.54-4.63z" fill="#f6d2a2" stroke="#000" stroke-miterlimit="10" stroke-width=".25"/><path d="m78.19 393.07c-.32-7.2 13.44-8.12 15.06-2.07 1.61 6.05-14.4 7.43-15.06 2.07z" fill="#010101"/><g stroke="#000" stroke-miterlimit="10" stroke-width=".25"><path d="m48.08 437.8c.2 1.49.5 3.67 2.36 4.96 1.93 1.34 4.18.72 4.46.64 2.42-.7 3.4-2.79 3.54-3.09.09-.16.19-.38.26-.67.06-.25.07-.47.06-.64.02-.88-.22-1.25-.45-1.43 0 0-.08-.06-.83-.41s.01-.01.54-.22c.07-.05.16-.1.25-.15.04-.02.08-.04.12-.06.14-.05.33-.15.48-.33.51-.62.1-1.69-.03-2.04-.6-1.59-2.59-2.67-4.34-3.06-.69-.16-3.68-.84-5.47 1.02-1.49 1.55-1.18 3.76-.95 5.48z" fill="#f6d2a2"/><path d="m57.64 437.08c-.43.14-1.13.3-2 .24-.76-.05-1.36-.25-1.75-.41" fill="none"/><path d="m132.27 438.23c-.2 1.49-.5 3.67-2.36 4.96-1.93 1.34-4.18.72-4.46.64-2.42-.7-3.4-2.79-3.54-3.09-.09-.16-.19-.38-.26-.67-.06-.25-.07-.47-.06-.64-.02-.88.22-1.25.45-1.43 0 0 .08-.06.83-.41s-.01-.01-.54-.22c-.07-.05-.16-.1-.25-.15-.04-.02-.08-.04-.12-.06-.14-.05-.33-.15-.48-.33-.51-.62-.1-1.69.03-2.04.6-1.59 2.59-2.67 4.34-3.06.69-.16 3.68-.84 5.47 1.02 1.49 1.55 1.19 3.75.95 5.48z" fill="#f6d2a2"/><path d="m122.71 437.5c.43.14 1.13.3 2 .24.76-.05 1.36-.25 1.75-.41" fill="none"/><path d="m45.2 510.95c0-1.65 1.14-2.99 2.56-2.99" fill="none"/><path d="m125.44 509.19c0-2.25-.76-4.08-1.7-4.08" fill="none"/><path d="m193.57 490.06c-2.9 4.34-11.74 12.36-16.19 5.94-6.43-6.12 6.8-9.8 8.52-15.28 3.84 2.06 6.6 5.43 7.67 9.34z" fill="#f6d2a2"/><path d="m181.09 441.13c-.89-4.81-5.76-7.46-8.26-11.44-1.48-1.4-1.41-3.62.14-4.95.36-.31.78-.55 1.24-.72-.02-.57.24-1.11.73-1.48 6.21-3.58 10.68 3.5 13.81 7.22 1.2 5.28-3.73 8.59-7.66 11.37z" fill="#f6d2a2"/><path d="m326.57 484.74c11.31 15.29-15.48 29.82-21.64 10.83z" fill="#74cddd"/><ellipse cx="316.66" cy="494.49" rx="4.4" ry="3.96"/><path d="m299.42 414.42c1.9-.47 4.51-.98 7.65-1.2 2.44-.17 5.38-.19 8.73.25 5.13.67 7.72.99 8.71 2.78 1.25 2.25.11 5.78-2.52 8.72z" fill="#74cddd"/><path d="m311.1 421.41c-2.45.04-5.05-1.94-4.94-4.32.11-2.28 2.64-3.88 4.87-3.89 2.18-.01 4.7 1.51 4.87 3.76.18 2.38-2.36 4.41-4.8 4.45z"/><path d="m335.03 455.5c.4 7.01 1.16 20.19-7.44 30.86-3.74 4.64-8.07 7.34-12.16 9.42-18.09 9.21-38.13 9.8-60.93 9.33-32.1-.67-48.31-1.11-55.99-6.47-12.06-8.42-22.66-24.47-21.85-43.46.1-2.36 1.34-23.79 17.45-35.49 7.7-5.59 23.18-5.89 54.15-6.47 22.97-.44 17.93 1.18 33.5.43 9.77-.47 16.9-1.36 26.24 1.77 3.5 1.17 9.28 3.17 14.66 8.08 11.11 10.13 11.96 24.85 12.37 32z" fill="#74cddd"/><ellipse cx="305.84" cy="437.68" fill="#fff" rx="15.52" ry="16.18" transform="matrix(.0219 -.9998 .9998 .0219 -138.4324 733.8551)"/><ellipse cx="308.48" cy="476.12" fill="#fff" rx="15.52" ry="16.18" transform="matrix(.0219 -.9998 .9998 .0219 -174.287 774.0856)"/><ellipse cx="299.99" cy="476.23" fill="#010101" rx="5.48" ry="4.48" transform="matrix(1 -.00690458 .00690458 1 -3.281 2.0826)"/><ellipse cx="298.77" cy="478.26" fill="#fff" rx="1.39" ry="1.05" transform="matrix(1 -.00897308 .00897308 1 -4.2795 2.7001)"/><ellipse cx="298.16" cy="439.62" fill="#010101" rx="5.48" ry="4.55" transform="matrix(1 -.00623276 .00623276 1 -2.7343 1.8669)"/><ellipse cx="296.94" cy="441.71" fill="#fff" rx="1.39" ry="1.07" transform="matrix(1 -.00849017 .00849017 1 -3.7395 2.537)"/><path d="m283.8 465.07c.42-.37.2-.53.76-2.86.45-1.85.67-2.78.84-3.02.08-.11.33-.45.2-.65-.12-.18-.48-.16-.66-.16-.83.03-1.66 0-2.49.05-.1.01-.79.02-2.16.06-.88.02-.84.02-1.36.03-2.42.06-2.73.12-3.01.19-.56.14-1.19.29-1.76.78-.79.68-.96 1.55-1.07 2.11-.12.64-.24 1.27.11 1.9.35.62.96.89 1.84 1.27 1.12.49 2.08.64 2.89.76 1.55.23 2.71.17 3.05.15 1.52-.09 2.28-.14 2.82-.61z" fill="#fff"/><path d="m283.73 451.84c.43.36.21.53.85 2.84.51 1.84.76 2.76.94 3 .09.12.35.46.22.64-.12.17-.52.12-.8.09-.81-.09-1.63.02-2.44.02-.97 0-1.75.03-2.25.04-.63.02-.6.03-1.27.06-1.59.06-2.4.09-2.95-.03-.37-.09-1.1-.27-1.76-.82-.82-.7-1.02-1.58-1.13-2.08-.14-.64-.28-1.26.05-1.91.33-.63.93-.91 1.8-1.32 1.11-.52 2.06-.7 2.86-.84 1.54-.27 2.71-.24 3.04-.23 1.53.06 2.29.08 2.84.54z" fill="#fff"/><path d="m286.19 446.96c.52.02 1.79.08 3.02.84.59.36.97.76 1.2 1.01.3.32.88 1.01 1.26 2 .32.84.35 1.51.37 2.24.1 2.79.11 3.99.16 4.87.11 1.86.44 1.84.57 3.8.12 1.83-.06 2.69-.28 3.36-.31.91-.74 1.54-1.11 2.07-.39.56-1.13 1.61-2.5 2.58-.74.52-1.16.84-1.89 1.05-1.48.42-2.76 0-3.09-.11-.37-.13-1.6-.62-2.35-1.84-.68-1.09-.59-2.14-.55-2.58.06-.58.17-.6.89-2.56.42-1.16.41-1.24.77-2.18.57-1.51.75-1.6.91-2.2.33-1.3-.15-2.7-.37-3.19-.48-1.11-.8-.94-1.44-2.22-.32-.62-.75-1.5-.8-2.66-.03-.73-.09-1.89.72-2.87 1.27-1.54 3.76-1.44 4.51-1.41z" fill="#f6d2a2"/><path d="m290.91 451.84c7.09-.37 8.2 11.84 2.26 13.35s-7.53-12.69-2.26-13.35z" fill="#010101"/><path d="m246.38 425.67c-1.47.2-3.61.49-4.86 2.16-1.3 1.73-.65 3.72-.57 3.97.72 2.14 2.8 2.99 3.1 3.1.16.08.38.16.66.22.25.05.46.05.63.05.86.01 1.23-.21 1.41-.41 0 0 .06-.07.4-.74s.01.01.23.48c.05.06.1.14.15.22.02.04.04.07.06.11.06.13.15.29.34.43.62.45 1.67.07 2.01-.05 1.55-.55 2.59-2.33 2.96-3.89.14-.61.78-3.28-1.08-4.85-1.57-1.33-3.74-1.04-5.44-.8z" fill="#f6d2a2"/><path d="m247.23 434.15c-.14-.38-.31-1-.27-1.77.04-.67.23-1.21.38-1.56" fill="none"/><path d="m247.15 500.45c-1.47-.16-3.62-.4-4.93-2.03-1.35-1.7-.77-3.7-.69-3.96.65-2.16 2.7-3.06 3-3.18.16-.08.38-.17.66-.24.25-.05.46-.07.63-.06.86-.03 1.24.18 1.42.38 0 0 .06.07.42.73s.01-.01.21-.48c.05-.07.1-.14.14-.23.02-.04.04-.08.05-.11.05-.13.14-.3.32-.43.61-.46 1.66-.11 2.01 0 1.57.51 2.67 2.26 3.08 3.81.16.61.88 3.26-.93 4.87-1.5 1.36-3.68 1.12-5.39.93z" fill="#f6d2a2"/><path d="m247.73 491.96c-.13.39-.28 1.01-.21 1.78.06.67.26 1.2.43 1.55" fill="none"/><path d="m174.21 424.04c1.63-.02 2.97.98 2.99 2.23" fill="none"/><path d="m177.09 495.29c2.22-.03 4.01-.73 4-1.56" fill="none"/><path d="m454.31 490.08c-2.9 4.34-11.74 12.36-16.19 5.94-6.43-6.12 6.8-9.8 8.52-15.28 3.85 2.06 6.6 5.43 7.67 9.34z" fill="#f6d2a2"/><path d="m441.83 441.15c-.89-4.81-5.76-7.46-8.26-11.44-1.48-1.4-1.41-3.62.14-4.95.36-.31.78-.55 1.24-.72-.02-.57.24-1.11.73-1.48 6.21-3.58 10.68 3.5 13.81 7.22 1.21 5.27-3.72 8.58-7.66 11.37z" fill="#f6d2a2"/><path d="m587.32 484.75c11.31 15.29-15.48 29.82-21.64 10.83z" fill="#74cddd"/><ellipse cx="577.41" cy="494.51" rx="4.4" ry="3.96"/><path d="m560.16 414.44c1.9-.47 4.51-.98 7.65-1.2 2.44-.17 5.38-.19 8.73.25 5.13.67 7.72.99 8.71 2.78 1.25 2.25.11 5.78-2.52 8.72z" fill="#74cddd"/><path d="m571.85 421.43c-2.45.04-5.05-1.94-4.94-4.32.11-2.28 2.64-3.88 4.87-3.89 2.18-.01 4.7 1.51 4.87 3.76.17 2.37-2.36 4.41-4.8 4.45z"/><path d="m595.77 455.52c.4 7.01 1.16 20.19-7.44 30.86-3.74 4.64-8.07 7.34-12.16 9.42-18.09 9.21-38.13 9.8-60.93 9.33-32.1-.67-48.31-1.11-55.99-6.47-12.06-8.42-22.66-24.47-21.85-43.46.1-2.36 1.34-23.79 17.45-35.49 7.7-5.59 23.18-5.89 54.15-6.47 22.97-.44 17.93 1.18 33.5.43 9.77-.47 16.9-1.36 26.24 1.77 3.5 1.17 9.28 3.17 14.66 8.08 11.12 10.13 11.96 24.85 12.37 32z" fill="#74cddd"/><ellipse cx="566.59" cy="437.7" fill="#fff" rx="15.52" ry="16.18" transform="matrix(.0219 -.9998 .9998 .0219 116.5799 994.5542)"/><ellipse cx="569.22" cy="476.14" fill="#fff" rx="15.52" ry="16.18" transform="matrix(.0219 -.9998 .9998 .0219 80.7253 1034.7848)"/><ellipse cx="560.73" cy="476.25" fill="#010101" rx="5.48" ry="4.48" transform="matrix(1 -.00690458 .00690458 1 -3.2749 3.883)"/><ellipse cx="559.51" cy="478.28" fill="#fff" rx="1.39" ry="1.05" transform="matrix(1 -.00897308 .00897308 1 -4.2691 5.0398)"/><ellipse cx="558.9" cy="439.64" fill="#010101" rx="5.48" ry="4.55" transform="matrix(1 -.00623276 .00623276 1 -2.7293 3.492)"/><ellipse cx="557.68" cy="441.73" fill="#fff" rx="1.39" ry="1.07" transform="matrix(1 -.00849017 .00849017 1 -3.7302 4.7507)"/><path d="m544.54 465.09c.42-.37.2-.53.76-2.86.45-1.85.67-2.78.84-3.02.08-.11.33-.45.2-.65-.12-.18-.48-.16-.66-.16-.83.03-1.66 0-2.49.05-.1.01-.79.02-2.16.06-.88.02-.84.02-1.36.03-2.42.06-2.73.12-3.01.19-.56.14-1.19.29-1.76.78-.79.68-.96 1.55-1.07 2.11-.12.64-.24 1.27.11 1.9.35.62.96.89 1.84 1.27 1.12.49 2.08.64 2.89.76 1.55.23 2.71.17 3.05.15 1.52-.09 2.29-.14 2.82-.61z" fill="#fff"/><path d="m544.47 451.86c.43.36.21.53.85 2.84.51 1.84.76 2.76.94 3 .09.12.35.46.22.64-.12.17-.52.12-.8.09-.81-.09-1.63.02-2.44.02-.97 0-1.75.03-2.25.04-.63.02-.6.03-1.27.06-1.59.06-2.4.09-2.95-.03-.37-.09-1.1-.27-1.76-.82-.82-.7-1.02-1.58-1.13-2.08-.14-.64-.28-1.26.05-1.91.33-.63.93-.91 1.8-1.32 1.11-.52 2.06-.7 2.86-.84 1.54-.27 2.71-.24 3.04-.23 1.53.05 2.29.08 2.84.54z" fill="#fff"/><path d="m546.94 446.98c.52.02 1.79.08 3.02.84.59.36.97.76 1.2 1.01.3.32.88 1.01 1.26 2 .32.84.35 1.51.37 2.24.1 2.79.11 3.99.16 4.87.11 1.86.44 1.84.57 3.8.12 1.83-.06 2.69-.28 3.36-.31.91-.74 1.54-1.11 2.07-.39.56-1.13 1.61-2.5 2.58-.74.52-1.16.84-1.89 1.05-1.48.42-2.76 0-3.09-.11-.37-.13-1.6-.62-2.35-1.84-.68-1.09-.59-2.14-.55-2.58.06-.58.17-.6.89-2.56.42-1.16.41-1.24.77-2.18.57-1.51.75-1.6.91-2.2.33-1.3-.15-2.7-.37-3.19-.48-1.11-.8-.94-1.44-2.22-.32-.62-.75-1.5-.8-2.66-.03-.73-.09-1.89.72-2.87 1.27-1.54 3.75-1.44 4.51-1.41z" fill="#f6d2a2"/><path d="m551.66 451.86c7.09-.37 8.2 11.84 2.26 13.35-5.94 1.5-7.53-12.7-2.26-13.35z" fill="#010101"/><path d="m507.13 425.69c-1.47.2-3.61.49-4.86 2.16-1.3 1.73-.65 3.72-.57 3.97.72 2.14 2.8 2.99 3.1 3.1.16.08.38.16.66.22.25.05.46.05.63.05.86.01 1.23-.21 1.41-.41 0 0 .06-.07.4-.74s.01.01.23.48c.05.06.1.14.15.22.02.04.04.07.06.11.06.13.15.29.34.43.62.45 1.67.07 2.01-.05 1.55-.55 2.59-2.33 2.96-3.89.14-.61.78-3.28-1.08-4.85-1.58-1.33-3.75-1.04-5.44-.8z" fill="#f6d2a2"/><path d="m507.98 434.16c-.14-.38-.31-1-.27-1.77.04-.67.23-1.21.38-1.56" fill="none"/><path d="m507.9 500.47c-1.47-.16-3.62-.4-4.93-2.03-1.35-1.7-.77-3.7-.69-3.96.65-2.16 2.7-3.06 3-3.18.16-.08.38-.17.66-.24.25-.05.46-.07.63-.06.86-.03 1.24.18 1.42.38 0 0 .06.07.42.73s.01-.01.21-.48c.05-.07.1-.14.14-.23.02-.04.04-.08.05-.11.05-.13.14-.3.32-.43.61-.46 1.66-.11 2.01 0 1.57.51 2.67 2.26 3.08 3.81.16.61.88 3.26-.93 4.87-1.51 1.36-3.69 1.12-5.39.93z" fill="#f6d2a2"/><path d="m508.48 491.97c-.13.39-.28 1.01-.21 1.78.06.67.26 1.21.43 1.55" fill="none"/><path d="m434.95 424.05c1.63-.02 2.97.98 2.99 2.23" fill="none"/><path d="m437.83 495.31c2.22-.03 4.01-.73 4-1.56" fill="none"/><path d="m753.87 448.15c.31 5.7-2.05 18.19-9.84 14.74-9.26-2.05-.48-13-2.5-19.09 4.53-.25 8.97 1.32 12.34 4.35z" fill="#f6d2a2"/><path d="m744.04 463.06c1.86-1.28 2.93-2.94 2.4-3.71" fill="none"/><path d="m695.95 425.71c-5.32-1.38-10.05 1.92-15.17 2.42-2.05.73-4.3-.34-5.03-2.4-.17-.47-.24-.98-.22-1.48-.59-.24-1.04-.74-1.22-1.35-1.12-7.39 8.01-8.29 13.11-9.48 5.92 1.29 7.29 7.37 8.53 12.29z" fill="#f6d2a2"/><path d="m675.46 424.34c.51-1.57 2-2.5 3.35-2.07" fill="none"/><path d="m686.34 329.52c-22.05-6.1-5.64-34.25 12.2-22.72z" fill="#74cddd"/><circle cx="689.44" cy="317.78" r="4.94"/><path d="m733.09 294.07c17.76-.7 31.72 5.09 35.62 9.61 2.77 3.21 5.89 7.71 5.89 7.71s1.47 2.11 2.83 4.3c15.77 25.26 16.94 56.42 16.94 56.42.34 9.13.74 23.88-6.01 40.9-2.11 5.33-4.86 12.25-10.86 19.46-2.31 2.78-19.6 22.84-47.08 22.17-3.52-.09-27.28-.67-39.69-18.27-1.52-2.15-9.29-13.18-6.62-24.81 1.11-4.84 3.01-5.31 6.65-13.54 2.45-5.54 5.91-13.32 6-21.29.14-11.87-7.32-12.02-10.75-27.9-.86-3.99-3.16-15.35 1.56-28 .94-2.52 2.94-7.73 7.32-12.75 11.34-12.95 28.97-13.64 38.2-14.01z" fill="#74cddd"/><ellipse cx="714.59" cy="337.93" fill="#fff" rx="17.47" ry="16.41" transform="matrix(.9358 -.3525 .3525 .9358 -73.2509 273.583)"/><ellipse cx="754.39" cy="320.74" fill="#fff" rx="17.47" ry="16.41" transform="matrix(.9358 -.3525 .3525 .9358 -64.6393 286.5102)"/><ellipse cx="757.43" cy="328.8" fill="#010101" rx="5.04" ry="5.56" transform="matrix(.9358 -.3525 .3525 .9358 -67.284 288.0968)"/><ellipse cx="760" cy="329.18" fill="#fff" rx="1.18" ry="1.41" transform="matrix(.9358 -.3525 .3525 .9358 -67.254 289.0291)"/><ellipse cx="719.29" cy="344.52" fill="#010101" rx="5.12" ry="5.56" transform="matrix(.9358 -.3525 .3525 .9358 -75.2725 275.6631)"/><ellipse cx="721.92" cy="344.88" fill="#fff" rx="1.21" ry="1.41" transform="matrix(.9358 -.3525 .3525 .9358 -75.2318 276.6131)"/><path d="m751.18 348.5c-.54-.26-.63.02-3.29.37-2.12.28-3.17.42-3.49.35-.14-.03-.59-.15-.76.06-.15.18-.01.52.06.69.32.78.57 1.59.9 2.36.04.1.29.74.8 2.03.33.83.31.79.5 1.29.9 2.29 1.06 2.56 1.23 2.8.34.48.72 1.02 1.44 1.38.99.5 1.97.32 2.6.21.72-.13 1.43-.26 1.98-.84.54-.57.61-1.26.71-2.24.13-1.26-.04-2.23-.19-3.05-.29-1.56-.75-2.65-.89-2.96-.61-1.41-.92-2.12-1.6-2.45z" fill="#fff"/><path d="m737.19 353.62c.23-.55.49-.4 2.71-1.89 1.77-1.19 2.66-1.78 2.85-2.04.1-.13.37-.51.61-.46.22.05.3.46.37.73.18.8.58 1.54.86 2.32.33.93.63 1.66.82 2.13.24.6.24.56.5 1.19.62 1.49.93 2.25.98 2.83.04.39.1 1.15-.27 1.99-.46 1.05-1.32 1.57-1.81 1.87-.63.38-1.24.75-2.04.68-.78-.07-1.29-.54-2.01-1.21-.93-.86-1.45-1.7-1.87-2.41-.82-1.36-1.19-2.49-1.29-2.81-.47-1.49-.7-2.23-.41-2.92z" fill="#fff"/><path d="m731.18 353.13c-.16-.5-.53-1.74-.15-3.2.18-.7.48-1.21.66-1.53.23-.4.76-1.22 1.69-1.96.78-.62 1.48-.91 2.25-1.21 2.92-1.16 4.18-1.63 5.1-2.01 1.93-.81 1.79-1.12 3.83-1.99 1.9-.81 2.87-.97 3.65-1.01 1.07-.05 1.88.12 2.57.27.73.15 2.1.46 3.59 1.39.81.5 1.29.79 1.76 1.4.96 1.25.95 2.64.94 2.99-.01.41-.1 1.76-1.13 2.95-.92 1.06-2.06 1.38-2.55 1.51-.63.17-.7.06-3.02.13-1.38.04-1.45.08-2.57.1-1.79.03-1.95-.11-2.64-.03-1.49.18-2.81 1.17-3.26 1.57-1.01.88-.73 1.12-1.86 2.23-.55.54-1.33 1.29-2.54 1.78-.77.31-1.98.81-3.28.41-2.06-.65-2.82-3.06-3.04-3.79z" fill="#f6d2a2"/><path d="m734.72 346.76c-2.83-6.62 9.72-12.34 13.36-7.25 3.64 5.1-10.85 12.03-13.36 7.25z" fill="#010101"/><path d="m698.23 383.47c.2 1.49.5 3.67 2.36 4.96 1.93 1.34 4.18.72 4.46.64 2.42-.7 3.4-2.79 3.54-3.09.09-.16.19-.38.26-.67.06-.25.07-.47.06-.64.02-.88-.22-1.25-.45-1.43 0 0-.08-.06-.83-.41s.01-.01.54-.22c.07-.05.16-.1.25-.15.04-.02.08-.04.12-.06.14-.05.33-.15.48-.33.51-.62.1-1.69-.03-2.04-.6-1.59-2.59-2.67-4.34-3.06-.69-.16-3.68-.84-5.47 1.02-1.49 1.55-1.19 3.76-.95 5.48z" fill="#f6d2a2"/><path d="m707.79 382.74c-.43.14-1.13.3-2 .24-.76-.05-1.36-.25-1.75-.41" fill="none"/><path d="m782.41 383.9c-.2 1.49-.5 3.67-2.36 4.96-1.93 1.34-4.18.72-4.46.64-2.42-.7-3.4-2.79-3.54-3.09-.09-.16-.19-.38-.26-.67-.06-.25-.07-.47-.06-.64-.02-.88.22-1.25.45-1.43 0 0 .08-.06.83-.41s-.01-.01-.54-.22c-.07-.05-.16-.1-.25-.15-.04-.02-.08-.04-.12-.06-.14-.05-.33-.15-.48-.33-.51-.62-.1-1.69.03-2.04.6-1.59 2.59-2.67 4.34-3.06.69-.16 3.68-.84 5.47 1.02 1.49 1.55 1.19 3.75.95 5.48z" fill="#f6d2a2"/><path d="m772.86 383.17c.43.14 1.13.3 2 .24.76-.05 1.36-.25 1.75-.41" fill="none"/><path d="m576.77 266.47c2.97-4.29 11.94-12.16 16.29-5.67 6.32 6.23-6.96 9.68-8.78 15.14-3.8-2.13-6.5-5.54-7.51-9.47z" fill="#f6d2a2"/><path d="m588.43 315.6c.81 4.83 5.63 7.56 8.07 11.57 1.45 1.43 1.35 3.64-.22 4.94-.36.3-.79.54-1.25.69.01.57-.26 1.11-.75 1.46-6.27 3.48-10.62-3.68-13.68-7.45-1.13-5.26 3.85-8.49 7.83-11.21z" fill="#f6d2a2"/><path d="m443.7 269.56c-11.05-15.47 15.98-29.56 21.82-10.47z" fill="#74cddd"/><ellipse cx="453.77" cy="259.98" rx="3.96" ry="4.4" transform="matrix(.0168 -.9999 .9999 .0168 186.2272 709.3285)"/><path d="m469.67 340.33c-1.91.44-4.53.9-7.67 1.07-2.44.13-5.39.09-8.73-.4-5.12-.75-7.7-1.12-8.66-2.92-1.21-2.27-.02-5.78 2.67-8.68z" fill="#74cddd"/><path d="m458.11 333.14c2.45 0 5.02 2.03 4.87 4.4-.14 2.27-2.7 3.84-4.93 3.81-2.18-.03-4.68-1.59-4.8-3.85-.15-2.37 2.42-4.36 4.86-4.36z"/><path d="m434.75 298.66c-.29-7.01-.82-20.2 7.96-30.73 3.82-4.58 8.19-7.2 12.32-9.21 18.25-8.9 38.29-9.16 61.08-8.31 32.09 1.2 48.28 1.92 55.88 7.41 11.92 8.62 22.25 24.84 21.11 43.82-.15 2.44-1.77 24.47-18.04 35.19-6.58 4.34-22.57 4.44-54.54 4.64-3.91.02-13.6.05-24.59 0-4.4-.02-6.64-.03-8.61-.07-13.66-.26-20.66-.25-26.21-2.21-3.48-1.23-9.22-3.32-14.52-8.32-10.94-10.32-11.55-25.06-11.84-32.21z" fill="#74cddd"/><ellipse cx="463.64" cy="316.96" fill="#fff" rx="15.52" ry="16.18" transform="matrix(.0387 -.9993 .9993 .0387 128.9874 768.0034)"/><ellipse cx="461.65" cy="278.49" fill="#fff" rx="15.52" ry="16.18" transform="matrix(.0387 -.9993 .9993 .0387 165.5248 729.0247)"/><ellipse cx="470.14" cy="278.52" fill="#010101" rx="4.48" ry="5.48" transform="matrix(.00985074 -1 1 .00985074 187.0023 745.8907)"/><ellipse cx="471.39" cy="276.5" fill="#fff" rx="1.05" ry="1.39" transform="matrix(.00778226 -1 1 .00778226 191.2265 745.7262)"/><ellipse cx="471.36" cy="315.15" fill="#010101" rx="4.55" ry="5.48" transform="matrix(.0105 -.9999 .9999 .0105 151.265 783.165)"/><ellipse cx="472.61" cy="313.08" fill="#fff" rx="1.07" ry="1.39" transform="matrix(.00826517 -1 1 .00826517 155.6297 783.0875)"/><path d="m486.14 289.94c-.43.37-.2.53-.81 2.85-.48 1.84-.72 2.77-.89 3.01-.08.11-.34.44-.21.65.11.18.48.17.66.17.83-.02 1.66.03 2.49 0 .1 0 .79-.01 2.16-.02.88-.01.84 0 1.36-.01 2.42-.02 2.73-.07 3.01-.14.56-.13 1.19-.27 1.78-.75.81-.67.99-1.54 1.1-2.09.13-.64.26-1.27-.08-1.9s-.95-.9-1.82-1.3c-1.11-.51-2.07-.68-2.87-.81-1.54-.26-2.71-.22-3.04-.2-1.53.05-2.3.08-2.84.54z" fill="#fff"/><path d="m485.99 303.17c-.43-.37-.2-.53-.8-2.85-.48-1.85-.72-2.77-.89-3.01-.09-.13-.34-.47-.21-.65.12-.17.53-.11.8-.07.81.1 1.63.01 2.44.02.97.02 1.75 0 2.25-.01.63-.01.6-.02 1.27-.04 1.59-.04 2.4-.05 2.95.08.37.09 1.1.28 1.74.85.81.72.99 1.59 1.1 2.1.13.64.26 1.27-.09 1.9-.34.62-.95.9-1.82 1.29-1.12.5-2.07.66-2.88.79-1.54.25-2.71.2-3.04.18-1.52-.07-2.28-.11-2.82-.58z" fill="#fff"/><path d="m483.44 308.01c-.52-.03-1.79-.11-3-.89-.58-.37-.95-.78-1.18-1.03-.29-.32-.86-1.02-1.22-2.02-.3-.84-.32-1.51-.34-2.25-.05-2.79-.04-3.99-.08-4.88-.08-1.86-.41-1.85-.5-3.81-.09-1.83.11-2.69.34-3.35.32-.9.77-1.52 1.14-2.05.4-.56 1.15-1.59 2.54-2.54.74-.51 1.18-.83 1.9-1.02 1.48-.4 2.76.04 3.09.16.37.14 1.59.64 2.32 1.88.66 1.1.56 2.15.51 2.59-.07.57-.18.6-.93 2.55-.44 1.16-.43 1.23-.81 2.17-.6 1.5-.78 1.59-.94 2.18-.35 1.29.1 2.7.31 3.2.46 1.11.78.96 1.41 2.25.3.63.72 1.51.76 2.67.02.73.06 1.9-.76 2.85-1.32 1.52-3.81 1.38-4.56 1.34z" fill="#f6d2a2"/><path d="m478.8 303.06c-7.1.25-8-11.97-2.03-13.38 5.96-1.42 7.31 12.81 2.03 13.38z" fill="#010101"/><path d="m522.89 329.97c1.47-.18 3.62-.43 4.9-2.08 1.33-1.71.71-3.71.63-3.96-.69-2.16-2.75-3.03-3.05-3.16-.16-.08-.38-.17-.66-.23-.25-.05-.46-.06-.63-.06-.86-.02-1.24.19-1.42.39 0 0-.06.07-.41.73s-.01-.01-.22-.48c-.05-.06-.1-.14-.15-.22-.02-.04-.04-.07-.06-.11-.05-.13-.15-.3-.33-.43-.61-.46-1.66-.1-2.01.02-1.56.52-2.63 2.29-3.02 3.84-.15.61-.83 3.27 1 4.86 1.55 1.35 3.73 1.09 5.43.89z" fill="#f6d2a2"/><path d="m522.18 321.48c.13.38.29 1.01.24 1.78-.05.67-.25 1.21-.41 1.56" fill="none"/><path d="m523.37 255.18c1.47.19 3.62.46 4.89 2.12 1.32 1.72.71 3.72.63 3.97-.69 2.15-2.75 3.01-3.05 3.13-.16.08-.38.17-.66.22-.25.05-.46.06-.63.05-.86.02-1.24-.2-1.41-.4 0 0-.06-.07-.41-.74s-.01.01-.22.48c-.05.06-.1.14-.15.22-.02.04-.04.07-.06.11-.05.13-.15.3-.33.43-.62.45-1.67.08-2.01-.04-1.56-.53-2.63-2.31-3.02-3.86-.15-.61-.83-3.27 1.01-4.86 1.55-1.32 3.72-1.05 5.42-.83z" fill="#f6d2a2"/><path d="m522.65 263.67c.13-.38.29-1.01.24-1.78-.05-.67-.24-1.21-.41-1.56" fill="none"/><path d="m595.03 332.81c-1.63-.01-2.95-1.03-2.95-2.28" fill="none"/><path d="m593.34 261.51c-2.22-.01-4.02.66-4.02 1.5" fill="none"/><path d="m348.41 266.81c2.97-4.29 11.94-12.16 16.29-5.67 6.32 6.23-6.96 9.68-8.78 15.14-3.8-2.14-6.51-5.55-7.51-9.47z" fill="#f6d2a2"/><path d="m360.07 315.93c.81 4.83 5.63 7.56 8.07 11.57 1.45 1.43 1.35 3.64-.22 4.94-.36.3-.79.54-1.25.69.01.57-.26 1.11-.75 1.46-6.27 3.48-10.62-3.68-13.68-7.45-1.14-5.26 3.85-8.49 7.83-11.21z" fill="#f6d2a2"/><path d="m215.34 269.9c-11.05-15.47 15.98-29.56 21.82-10.47z" fill="#74cddd"/><ellipse cx="225.41" cy="260.31" rx="3.96" ry="4.4" transform="matrix(.0168 -.9999 .9999 .0168 -38.6439 481.325)"/><path d="m241.31 340.66c-1.91.44-4.53.9-7.67 1.07-2.44.13-5.39.09-8.73-.4-5.12-.75-7.7-1.12-8.66-2.92-1.21-2.27-.02-5.78 2.67-8.68z" fill="#74cddd"/><path d="m229.74 333.47c2.45 0 5.02 2.03 4.87 4.4-.14 2.27-2.7 3.84-4.93 3.81-2.18-.03-4.68-1.59-4.8-3.85-.14-2.36 2.42-4.36 4.86-4.36z"/><path d="m206.39 298.99c-.29-7.01-.82-20.2 7.96-30.73 3.82-4.58 8.19-7.2 12.32-9.21 18.25-8.9 38.29-9.16 61.08-8.31 32.09 1.2 48.28 1.92 55.88 7.41 11.92 8.62 22.25 24.84 21.11 43.82-.15 2.44-1.77 24.47-18.04 35.19-6.58 4.34-22.57 4.44-54.54 4.64-3.91.02-13.6.05-24.59 0-4.4-.02-6.64-.03-8.61-.07-13.66-.26-20.66-.25-26.21-2.21-3.48-1.23-9.22-3.32-14.52-8.32-10.95-10.32-11.55-25.05-11.84-32.21z" fill="#74cddd"/><ellipse cx="235.28" cy="317.3" fill="#fff" rx="15.52" ry="16.18" transform="matrix(.0387 -.9993 .9993 .0387 -90.8812 540.1312)"/><ellipse cx="233.29" cy="278.82" fill="#fff" rx="15.52" ry="16.18" transform="matrix(.0387 -.9993 .9993 .0387 -54.3438 501.1525)"/><ellipse cx="241.77" cy="278.85" fill="#010101" rx="4.48" ry="5.48" transform="matrix(.00985074 -1 1 .00985074 -39.4455 517.8685)"/><ellipse cx="243.03" cy="276.84" fill="#fff" rx="1.05" ry="1.39" transform="matrix(.00778226 -1 1 .00778226 -35.6936 517.7005)"/><ellipse cx="242.99" cy="315.48" fill="#010101" rx="4.55" ry="5.48" transform="matrix(.0105 -.9999 .9999 .0105 -75.0294 555.1441)"/><ellipse cx="244.24" cy="313.42" fill="#fff" rx="1.07" ry="1.39" transform="matrix(.00826517 -1 1 .00826517 -71.1802 555.0625)"/><path d="m257.78 290.28c-.43.37-.2.53-.81 2.85-.48 1.84-.72 2.77-.89 3.01-.08.11-.34.44-.21.65.11.18.48.17.66.17.83-.02 1.66.03 2.49 0 .1 0 .79-.01 2.16-.02.88-.01.84 0 1.36-.01 2.42-.02 2.73-.07 3.01-.14.56-.13 1.19-.27 1.78-.75.81-.67.99-1.54 1.1-2.09.13-.64.26-1.27-.08-1.9s-.95-.9-1.82-1.3c-1.11-.51-2.07-.68-2.87-.81-1.54-.26-2.71-.22-3.04-.2-1.54.04-2.3.08-2.84.54z" fill="#fff"/><path d="m257.62 303.51c-.43-.37-.2-.53-.8-2.85-.48-1.85-.72-2.77-.89-3.01-.09-.13-.34-.47-.21-.65.12-.17.53-.11.8-.07.81.1 1.63.01 2.44.02.97.02 1.75 0 2.25-.01.63-.01.6-.02 1.27-.04 1.59-.04 2.4-.05 2.95.08.37.09 1.1.28 1.74.85.81.72.99 1.59 1.1 2.1.13.64.26 1.27-.09 1.9-.34.62-.95.9-1.82 1.29-1.12.5-2.07.66-2.88.79-1.54.25-2.71.2-3.04.18-1.51-.08-2.28-.12-2.82-.58z" fill="#fff"/><path d="m255.08 308.34c-.52-.03-1.79-.11-3-.89-.58-.37-.95-.78-1.18-1.03-.29-.32-.86-1.02-1.22-2.02-.3-.84-.32-1.51-.34-2.25-.05-2.79-.04-3.99-.08-4.88-.08-1.86-.41-1.85-.5-3.81-.09-1.83.11-2.69.34-3.35.32-.9.77-1.52 1.14-2.05.4-.56 1.15-1.59 2.54-2.54.74-.51 1.18-.83 1.9-1.02 1.48-.4 2.76.04 3.09.16.37.14 1.59.64 2.32 1.88.66 1.1.56 2.15.51 2.59-.07.57-.18.6-.93 2.55-.44 1.16-.43 1.23-.8 2.17-.6 1.5-.78 1.59-.94 2.18-.35 1.29.1 2.7.31 3.2.46 1.11.78.96 1.41 2.25.3.63.72 1.51.76 2.67.02.73.06 1.9-.76 2.85-1.33 1.53-3.82 1.39-4.57 1.34z" fill="#f6d2a2"/><path d="m250.44 303.39c-7.1.25-8-11.97-2.03-13.38 5.96-1.41 7.31 12.81 2.03 13.38z" fill="#010101"/><path d="m294.53 330.3c1.47-.18 3.62-.43 4.9-2.08 1.33-1.71.71-3.71.63-3.96-.69-2.16-2.75-3.03-3.05-3.16-.16-.08-.38-.17-.66-.23-.25-.05-.46-.06-.63-.06-.86-.02-1.24.19-1.42.39 0 0-.06.07-.41.73s-.01-.01-.22-.48c-.05-.06-.1-.14-.15-.22-.02-.04-.04-.07-.06-.11-.05-.13-.15-.3-.33-.43-.61-.46-1.66-.1-2.01.02-1.56.52-2.63 2.29-3.02 3.84-.15.61-.83 3.27 1 4.86 1.55 1.36 3.72 1.1 5.43.89z" fill="#f6d2a2"/><path d="m293.82 321.81c.13.38.29 1.01.24 1.78-.05.67-.25 1.21-.41 1.56" fill="none"/><path d="m295.01 255.51c1.47.19 3.62.46 4.89 2.12 1.32 1.72.71 3.72.63 3.97-.69 2.15-2.75 3.01-3.05 3.13-.16.08-.38.17-.66.22-.25.05-.46.06-.63.05-.86.02-1.24-.2-1.41-.4 0 0-.06-.07-.41-.74s-.01.01-.22.48c-.05.06-.1.14-.15.22-.02.04-.04.07-.06.11-.05.13-.15.3-.33.43-.62.45-1.67.08-2.01-.04-1.56-.53-2.63-2.31-3.02-3.86-.15-.61-.83-3.27 1.01-4.86 1.54-1.32 3.72-1.04 5.42-.83z" fill="#f6d2a2"/><path d="m294.28 264c.13-.38.29-1.01.24-1.78-.05-.67-.24-1.21-.41-1.56" fill="none"/><path d="m366.66 333.14c-1.63-.01-2.95-1.03-2.95-2.28" fill="none"/><path d="m364.98 261.85c-2.22-.01-4.02.66-4.02 1.5" fill="none"/><path d="m117.47 249.21c5.7.04 18.03 3.16 14.11 10.73-2.62 9.12-13-.32-19.21 1.32.03-4.54 1.87-8.88 5.1-12.05z" fill="#f6d2a2"/><path d="m131.67 259.93c-2.08-.87-4.06-.87-4.42 0" fill="none"/><path d="m75.57 279.18c1.66 5.24 6.97 7.49 10.12 11.56 1.71 1.35 2 3.83.65 5.53-.31.39-.7.73-1.13.98.11.63-.07 1.28-.5 1.75-5.66 4.88-11.27-2.37-15.01-6.06-2.05-5.69 2.37-10.09 5.87-13.76z" fill="#f6d2a2"/><path d="m85.21 297.25c-1.63.26-3.13-.66-3.35-2.06" fill="none"/><path d="m110.5 161.68c20.45-3.05 23.68 28.5 1.68 25.05z" fill="#74cddd"/><circle cx="116.16" cy="175.45" r="4.46"/><path d="m65.73 130.98c5.1-.51 23.2-2.33 36.65 9.64 4.73 4.21 7.15 8.58 8.4 10.89 6.41 11.78 7.35 26.59 4.17 37.94-.82 2.93-2.45 7.52-3.63 14.89-.74 4.65-1.14 7.13-1 9.72.6 10.79 10.06 13.83 13.36 22.44 5.02 13.11-7.98 29.35-11.39 33.62-1.29 1.62-21.56 26.22-49.23 21.45-17.17-2.96-27.98-15.47-31.69-19.78-5.33-6.17-8.12-11.93-10.34-16.57-1.72-3.6-7.72-16.81-9.09-35.62-2.17-29.82 8.93-51.59 13.91-61.33 4.1-8.04 7.26-11.99 10.69-15.15 10.97-10.12 24.18-11.63 29.19-12.14z" fill="#74cddd"/><ellipse cx="50.73" cy="157.07" fill="#fff" rx="16.41" ry="17.47" transform="matrix(.3831 -.9237 .9237 .3831 -113.7964 143.7495)"/><ellipse cx="91.51" cy="171.77" fill="#fff" rx="16.41" ry="17.47" transform="matrix(.3831 -.9237 .9237 .3831 -102.2137 190.4888)"/></g><ellipse cx="88.21" cy="179.72" fill="#010101" rx="5.56" ry="5.04" transform="matrix(.3831 -.9237 .9237 .3831 -111.5924 192.3473)"/><ellipse cx="89.83" cy="181.76" fill="#fff" rx="1.41" ry="1.18" transform="matrix(.3831 -.9237 .9237 .3831 -112.4816 195.0988)"/><ellipse cx="49.65" cy="165.1" fill="#010101" rx="5.56" ry="5.12" transform="matrix(.3831 -.9237 .9237 .3831 -121.8739 147.7008)"/><ellipse cx="51.31" cy="167.16" fill="#fff" rx="1.41" ry="1.21" transform="matrix(.3831 -.9237 .9237 .3831 -122.7506 150.515)"/><path d="m70.18 189.82c-.22-.56-.47-.42-2.65-1.98-1.73-1.24-2.6-1.87-2.78-2.13-.08-.12-.33-.51-.59-.48-.23.03-.36.37-.43.55-.3.79-.67 1.54-.95 2.34-.03.1-.29.74-.81 2.03-.33.83-.32.79-.51 1.28-.91 2.28-.98 2.59-1.02 2.89-.08.58-.17 1.24.1 1.99.38 1.04 1.22 1.59 1.75 1.93.61.4 1.22.79 2.01.74.78-.05 1.3-.5 2.05-1.14.96-.83 1.5-1.65 1.95-2.35.86-1.34 1.27-2.45 1.38-2.77.51-1.46.77-2.19.5-2.9z" fill="#fff" stroke="#000" stroke-miterlimit="10" stroke-width=".25"/><path d="m56.48 183.98c.55-.24.63.04 3.28.47 2.1.35 3.16.52 3.47.47.17-.03.62-.12.76.08.13.19-.09.54-.23.79-.42.71-.63 1.52-.96 2.28-.39.9-.68 1.64-.86 2.11-.23.6-.21.57-.45 1.21-.57 1.51-.87 2.28-1.22 2.73-.24.31-.72.91-1.56 1.27-1.06.45-2.04.25-2.6.13-.71-.15-1.42-.3-1.95-.9-.52-.59-.57-1.27-.64-2.26-.09-1.26.11-2.23.29-3.04.34-1.55.84-2.63.98-2.93.66-1.41.99-2.1 1.69-2.41z" fill="#fff" stroke="#000" stroke-miterlimit="10" stroke-width=".25"/><path d="m52.42 179.51c.23-.48.81-1.63 2.08-2.43.61-.39 1.18-.56 1.53-.67.45-.13 1.39-.37 2.57-.28.99.08 1.7.35 2.47.65 2.92 1.15 4.17 1.68 5.1 2.02 1.96.73 2.08.41 4.16 1.17 1.94.71 2.76 1.26 3.35 1.76.82.69 1.29 1.37 1.69 1.96.43.61 1.21 1.77 1.67 3.48.24.92.41 1.46.33 2.23-.16 1.56-1.11 2.58-1.36 2.82-.29.29-1.28 1.21-2.84 1.37-1.4.14-2.45-.4-2.89-.64-.57-.31-.55-.43-2.29-1.97-1.03-.91-1.12-.94-1.94-1.69-1.33-1.2-1.35-1.42-1.91-1.82-1.21-.88-2.85-1.06-3.45-1.08-1.34-.05-1.3.32-2.88.35-.77.02-1.85.03-3.07-.44-.77-.3-1.99-.76-2.67-1.94-1.08-1.89.02-4.16.35-4.85z" fill="#f6d2a2" stroke="#000" stroke-miterlimit="10" stroke-width=".25"/><path d="m59.36 177.29c2.47-6.77 15.53-2.35 14.7 3.85-.82 6.21-16.14 1.35-14.7-3.85z" fill="#010101"/><path d="m22.34 214.09c.2 1.49.5 3.67 2.36 4.96 1.93 1.34 4.18.72 4.46.64 2.42-.7 3.4-2.79 3.54-3.09.09-.16.19-.38.26-.67.06-.25.07-.47.06-.64.02-.88-.22-1.25-.45-1.43 0 0-.08-.06-.83-.41s.01-.01.54-.22c.07-.05.16-.1.25-.15.04-.02.08-.04.12-.06.14-.05.33-.15.48-.33.51-.62.1-1.69-.03-2.04-.6-1.59-2.59-2.67-4.34-3.06-.69-.16-3.68-.84-5.47 1.02-1.49 1.55-1.19 3.76-.95 5.48z" fill="#f6d2a2" stroke="#000" stroke-miterlimit="10" stroke-width=".25"/><path d="m31.9 213.37c-.43.14-1.13.3-2 .24-.76-.05-1.36-.25-1.75-.41" fill="none" stroke="#000" stroke-miterlimit="10" stroke-width=".25"/><path d="m104.22 217.74c-.2 1.49-.5 3.67-2.36 4.96-1.93 1.34-4.18.72-4.46.64-2.42-.7-3.4-2.79-3.54-3.09-.09-.16-.19-.38-.26-.67-.06-.25-.07-.47-.06-.64-.02-.88.22-1.25.45-1.43 0 0 .08-.06.83-.41s-.01-.01-.54-.22c-.07-.05-.16-.1-.25-.15-.04-.02-.08-.04-.12-.06-.14-.05-.33-.15-.48-.33-.51-.62-.1-1.69.03-2.04.6-1.59 2.59-2.67 4.34-3.06.69-.16 3.68-.84 5.47 1.02 1.49 1.55 1.19 3.75.95 5.48z" fill="#f6d2a2" stroke="#000" stroke-miterlimit="10" stroke-width=".25"/><path d="m94.67 217.01c.43.14 1.13.3 2 .24.76-.05 1.36-.25 1.75-.41" fill="none" stroke="#000" stroke-miterlimit="10" stroke-width=".25"/><path d="m496.51 163.06c-2.9 4.34-11.74 12.36-16.19 5.94-6.43-6.12 6.8-9.8 8.52-15.28 3.84 2.06 6.6 5.43 7.67 9.34z" fill="#f6d2a2" stroke="#000" stroke-miterlimit="10" stroke-width=".25"/><path d="m484.03 114.13c-.89-4.81-5.76-7.46-8.26-11.44-1.48-1.4-1.41-3.62.14-4.95.36-.31.78-.55 1.24-.72-.02-.57.24-1.11.73-1.48 6.21-3.58 10.68 3.5 13.81 7.22 1.2 5.27-3.73 8.58-7.66 11.37z" fill="#f6d2a2" stroke="#000" stroke-miterlimit="10" stroke-width=".25"/><path d="m629.51 157.73c11.31 15.29-15.48 29.82-21.64 10.83z" fill="#74cddd" stroke="#000" stroke-miterlimit="10" stroke-width=".25"/><ellipse cx="619.6" cy="167.49" rx="4.4" ry="3.96" stroke="#000" stroke-miterlimit="10" stroke-width=".25"/><path d="m602.36 87.42c1.9-.47 4.51-.98 7.65-1.2 2.44-.17 5.38-.19 8.73.25 5.13.67 7.72.99 8.71 2.78 1.25 2.25.11 5.78-2.52 8.72z" fill="#74cddd" stroke="#000" stroke-miterlimit="10" stroke-width=".25"/><path d="m614.04 94.41c-2.45.04-5.05-1.94-4.94-4.32.11-2.28 2.64-3.88 4.87-3.89 2.18-.01 4.7 1.51 4.87 3.76.17 2.37-2.36 4.41-4.8 4.45z" stroke="#000" stroke-miterlimit="10" stroke-width=".25"/><path d="m637.97 128.5c.4 7.01 1.16 20.19-7.44 30.86-3.74 4.64-8.07 7.34-12.16 9.42-18.09 9.21-38.13 9.8-60.93 9.33-32.1-.67-48.31-1.11-55.99-6.47-12.06-8.42-22.66-24.47-21.85-43.46.1-2.36 1.34-23.79 17.45-35.49 7.7-5.59 23.18-5.89 54.15-6.47 22.97-.44 17.93 1.18 33.5.43 9.77-.47 16.9-1.36 26.24 1.77 3.5 1.17 9.28 3.17 14.66 8.08 11.11 10.13 11.96 24.85 12.37 32z" fill="#74cddd" stroke="#000" stroke-miterlimit="10" stroke-width=".25"/><ellipse cx="608.78" cy="110.68" fill="#fff" rx="15.52" ry="16.18" stroke="#000" stroke-miterlimit="10" stroke-width=".25" transform="matrix(.0219 -.9998 .9998 .0219 484.7917 716.8854)"/><ellipse cx="611.41" cy="149.12" fill="#fff" rx="15.52" ry="16.18" stroke="#000" stroke-miterlimit="10" stroke-width=".25" transform="matrix(.0219 -.9998 .9998 .0219 448.9371 757.116)"/><ellipse cx="602.93" cy="149.23" fill="#010101" rx="5.48" ry="4.48" stroke="#000" stroke-miterlimit="10" stroke-width=".25" transform="matrix(1 -.00690458 .00690458 1 -1.016 4.1665)"/><ellipse cx="601.71" cy="151.26" fill="#fff" rx="1.39" ry="1.05" stroke="#000" stroke-miterlimit="10" stroke-width=".25" transform="matrix(1 -.00897308 .00897308 1 -1.3331 5.4053)"/><ellipse cx="601.09" cy="112.62" fill="#010101" rx="5.48" ry="4.55" stroke="#000" stroke-miterlimit="10" stroke-width=".25" transform="matrix(1 -.00623276 .00623276 1 -.6903 3.7487)"/><ellipse cx="599.88" cy="114.71" fill="#fff" rx="1.39" ry="1.07" stroke="#000" stroke-miterlimit="10" stroke-width=".25" transform="matrix(1 -.00849017 .00849017 1 -.9523 5.0972)"/><path d="m586.73 138.07c.42-.37.2-.53.76-2.86.45-1.85.67-2.78.84-3.02.08-.11.33-.45.2-.65-.12-.18-.48-.16-.66-.16-.83.03-1.66 0-2.49.05-.1.01-.79.02-2.16.06-.88.02-.84.02-1.36.03-2.42.06-2.73.12-3.01.19-.56.14-1.19.29-1.76.78-.79.68-.96 1.55-1.07 2.11-.12.64-.24 1.27.11 1.9.35.62.96.89 1.84 1.27 1.12.49 2.08.64 2.89.76 1.55.23 2.71.17 3.05.15 1.53-.09 2.29-.14 2.82-.61z" fill="#fff" stroke="#000" stroke-miterlimit="10" stroke-width=".25"/><path d="m586.67 124.84c.43.36.21.53.85 2.84.51 1.84.76 2.76.94 3 .09.12.35.46.22.64-.12.17-.52.12-.8.09-.81-.09-1.63.02-2.44.02-.97 0-1.75.03-2.25.04-.63.02-.6.03-1.27.06-1.59.06-2.4.09-2.95-.03-.37-.09-1.1-.27-1.76-.82-.82-.7-1.02-1.58-1.13-2.08-.14-.64-.28-1.26.05-1.91.33-.63.93-.91 1.8-1.32 1.11-.52 2.06-.7 2.86-.84 1.54-.27 2.71-.24 3.04-.23 1.53.05 2.29.08 2.84.54z" fill="#fff" stroke="#000" stroke-miterlimit="10" stroke-width=".25"/><path d="m589.13 119.96c.52.02 1.79.08 3.02.84.59.36.97.76 1.2 1.01.3.32.88 1.01 1.26 2 .32.84.35 1.51.37 2.24.1 2.79.11 3.99.16 4.87.11 1.86.44 1.84.57 3.8.12 1.83-.06 2.69-.28 3.36-.31.91-.74 1.54-1.11 2.07-.39.56-1.13 1.61-2.5 2.58-.74.52-1.16.84-1.89 1.05-1.48.42-2.76 0-3.09-.11-.37-.13-1.6-.62-2.35-1.84-.68-1.09-.59-2.14-.55-2.58.06-.58.17-.6.89-2.56.42-1.16.41-1.24.77-2.18.57-1.51.75-1.6.91-2.2.33-1.3-.15-2.7-.37-3.19-.48-1.11-.8-.94-1.44-2.22-.32-.62-.75-1.5-.8-2.66-.03-.73-.09-1.89.72-2.87 1.27-1.54 3.76-1.44 4.51-1.41z" fill="#f6d2a2" stroke="#000" stroke-miterlimit="10" stroke-width=".25"/><path d="m593.85 124.84c7.09-.37 8.2 11.84 2.26 13.35-5.94 1.5-7.53-12.7-2.26-13.35z" fill="#010101" stroke="#000" stroke-miterlimit="10" stroke-width=".25"/><path d="m549.32 98.67c-1.47.2-3.61.49-4.86 2.16-1.3 1.73-.65 3.72-.57 3.97.72 2.14 2.8 2.99 3.1 3.1.16.08.38.16.66.22.25.05.46.05.63.05.86.01 1.23-.21 1.41-.41 0 0 .06-.07.4-.74s.01.01.23.48c.05.06.1.14.15.22.02.04.04.07.06.11.06.13.15.29.34.43.62.45 1.67.07 2.01-.05 1.55-.55 2.59-2.33 2.96-3.89.14-.61.78-3.28-1.08-4.85-1.57-1.33-3.74-1.04-5.44-.8z" fill="#f6d2a2" stroke="#000" stroke-miterlimit="10" stroke-width=".25"/><path d="m550.17 107.15c-.14-.38-.31-1-.27-1.77.04-.67.23-1.21.38-1.56" fill="none" stroke="#000" stroke-miterlimit="10" stroke-width=".25"/><path d="m550.09 173.45c-1.47-.16-3.62-.4-4.93-2.03-1.35-1.7-.77-3.7-.69-3.96.65-2.16 2.7-3.06 3-3.18.16-.08.38-.17.66-.24.25-.05.46-.07.63-.06.86-.03 1.24.18 1.42.38 0 0 .06.07.42.73s.01-.01.21-.48c.05-.07.1-.14.14-.23.02-.04.04-.08.05-.11.05-.13.14-.3.32-.43.61-.46 1.66-.11 2.01 0 1.57.51 2.67 2.26 3.08 3.81.16.61.88 3.26-.93 4.87-1.51 1.36-3.68 1.12-5.39.93z" fill="#f6d2a2" stroke="#000" stroke-miterlimit="10" stroke-width=".25"/><path d="m550.67 164.95c-.13.39-.28 1.01-.21 1.78.06.67.26 1.21.43 1.55" fill="none" stroke="#000" stroke-miterlimit="10" stroke-width=".25"/><path d="m477.15 97.03c1.63-.02 2.97.98 2.99 2.23" fill="none" stroke="#000" stroke-miterlimit="10" stroke-width=".25"/><path d="m480.03 168.29c2.22-.03 4.01-.73 4-1.56" fill="none" stroke="#000" stroke-miterlimit="10" stroke-width=".25"/><path d="m247.85 163.07c-2.9 4.34-11.74 12.36-16.19 5.94-6.43-6.12 6.8-9.8 8.52-15.28 3.84 2.07 6.6 5.43 7.67 9.34z" fill="#f6d2a2" stroke="#000" stroke-miterlimit="10" stroke-width=".25"/><path d="m235.37 114.15c-.89-4.81-5.76-7.46-8.26-11.44-1.48-1.4-1.41-3.62.14-4.95.36-.31.78-.55 1.24-.72-.02-.57.24-1.11.73-1.48 6.21-3.58 10.68 3.5 13.81 7.22 1.2 5.27-3.72 8.58-7.66 11.37z" fill="#f6d2a2" stroke="#000" stroke-miterlimit="10" stroke-width=".25"/><path d="m380.85 157.75c11.31 15.29-15.48 29.82-21.64 10.83z" fill="#74cddd" stroke="#000" stroke-miterlimit="10" stroke-width=".25"/><ellipse cx="370.94" cy="167.51" rx="4.4" ry="3.96" stroke="#000" stroke-miterlimit="10" stroke-width=".25"/><path d="m353.7 87.43c1.9-.47 4.51-.98 7.65-1.2 2.44-.17 5.38-.19 8.73.25 5.13.67 7.72.99 8.71 2.78 1.25 2.25.11 5.78-2.52 8.72z" fill="#74cddd" stroke="#000" stroke-miterlimit="10" stroke-width=".25"/><path d="m365.38 94.43c-2.45.04-5.05-1.94-4.94-4.32.11-2.28 2.64-3.88 4.87-3.89 2.18-.01 4.7 1.51 4.87 3.76.18 2.37-2.36 4.41-4.8 4.45z" stroke="#000" stroke-miterlimit="10" stroke-width=".25"/><path d="m389.31 128.51c.4 7.01 1.16 20.19-7.44 30.86-3.74 4.64-8.07 7.34-12.16 9.42-18.09 9.21-38.13 9.8-60.93 9.33-32.1-.67-48.31-1.11-55.99-6.47-12.06-8.42-22.66-24.47-21.85-43.46.1-2.36 1.34-23.79 17.45-35.49 7.7-5.59 23.18-5.89 54.15-6.47 22.97-.44 17.93 1.18 33.5.43 9.77-.47 16.9-1.36 26.24 1.77 3.5 1.17 9.28 3.17 14.66 8.08 11.11 10.13 11.96 24.85 12.37 32z" fill="#74cddd" stroke="#000" stroke-miterlimit="10" stroke-width=".25"/><ellipse cx="360.12" cy="110.69" fill="#fff" rx="15.52" ry="16.18" stroke="#000" stroke-miterlimit="10" stroke-width=".25" transform="matrix(.0219 -.9998 .9998 .0219 241.5636 468.3041)"/><ellipse cx="362.76" cy="149.13" fill="#fff" rx="15.52" ry="16.18" stroke="#000" stroke-miterlimit="10" stroke-width=".25" transform="matrix(.0219 -.9998 .9998 .0219 205.709 508.5346)"/><ellipse cx="354.27" cy="149.24" fill="#010101" rx="5.48" ry="4.48" stroke="#000" stroke-miterlimit="10" stroke-width=".25" transform="matrix(1 -.00690458 .00690458 1 -1.022 2.4496)"/><ellipse cx="353.05" cy="151.28" fill="#fff" rx="1.39" ry="1.05" stroke="#000" stroke-miterlimit="10" stroke-width=".25" transform="matrix(1 -.00897308 .00897308 1 -1.3432 3.174)"/><ellipse cx="352.44" cy="112.64" fill="#010101" rx="5.48" ry="4.55" stroke="#000" stroke-miterlimit="10" stroke-width=".25" transform="matrix(1 -.00623276 .00623276 1 -.6952 2.1988)"/><ellipse cx="351.22" cy="114.73" fill="#fff" rx="1.39" ry="1.07" stroke="#000" stroke-miterlimit="10" stroke-width=".25" transform="matrix(1 -.00849017 .00849017 1 -.9614 2.986)"/><path d="m338.08 138.09c.42-.37.2-.53.76-2.86.45-1.85.67-2.78.84-3.02.08-.11.33-.45.2-.65-.12-.18-.48-.16-.66-.16-.83.03-1.66 0-2.49.05-.1.01-.79.02-2.16.06-.88.02-.84.02-1.36.03-2.42.06-2.73.12-3.01.19-.56.14-1.19.29-1.76.78-.79.68-.96 1.55-1.07 2.11-.12.64-.24 1.27.11 1.9.35.62.96.89 1.84 1.27 1.12.49 2.08.64 2.89.76 1.55.23 2.71.17 3.05.15 1.52-.09 2.28-.14 2.82-.61z" fill="#fff" stroke="#000" stroke-miterlimit="10" stroke-width=".25"/><path d="m338.01 124.86c.43.36.21.53.85 2.84.51 1.84.76 2.76.94 3 .09.12.35.46.22.64-.12.17-.52.12-.8.09-.81-.09-1.63.02-2.44.02-.97 0-1.75.03-2.25.04-.63.02-.6.03-1.27.06-1.59.06-2.4.09-2.95-.03-.37-.09-1.1-.27-1.76-.82-.82-.7-1.02-1.58-1.13-2.08-.14-.64-.28-1.26.05-1.91.33-.63.93-.91 1.8-1.32 1.11-.52 2.06-.7 2.86-.84 1.54-.27 2.71-.24 3.04-.23 1.53.05 2.29.08 2.84.54z" fill="#fff" stroke="#000" stroke-miterlimit="10" stroke-width=".25"/><path d="m340.47 119.98c.52.02 1.79.08 3.02.84.59.36.97.76 1.2 1.01.3.32.88 1.01 1.26 2 .32.84.35 1.51.37 2.24.1 2.79.11 3.99.16 4.87.11 1.86.44 1.84.57 3.8.12 1.83-.06 2.69-.28 3.36-.31.91-.74 1.54-1.11 2.07-.39.56-1.13 1.61-2.5 2.58-.74.52-1.16.84-1.89 1.05-1.48.42-2.76 0-3.09-.11-.37-.13-1.6-.62-2.35-1.84-.68-1.09-.59-2.14-.55-2.58.06-.58.17-.6.89-2.56.42-1.16.41-1.24.77-2.18.57-1.51.75-1.6.91-2.2.33-1.3-.15-2.7-.37-3.19-.48-1.11-.8-.94-1.44-2.22-.32-.62-.75-1.5-.8-2.66-.03-.73-.09-1.89.72-2.87 1.27-1.54 3.76-1.44 4.51-1.41z" fill="#f6d2a2" stroke="#000" stroke-miterlimit="10" stroke-width=".25"/><path d="m345.19 124.86c7.09-.37 8.2 11.84 2.26 13.35-5.94 1.5-7.53-12.7-2.26-13.35z" fill="#010101" stroke="#000" stroke-miterlimit="10" stroke-width=".25"/><path d="m300.66 98.68c-1.47.2-3.61.49-4.86 2.16-1.3 1.73-.65 3.72-.57 3.97.72 2.14 2.8 2.99 3.1 3.1.16.08.38.16.66.22.25.05.46.05.63.05.86.01 1.23-.21 1.41-.41 0 0 .06-.07.4-.74s.01.01.23.48c.05.06.1.14.15.22.02.04.04.07.06.11.06.13.15.29.34.43.62.45 1.67.07 2.01-.05 1.55-.55 2.59-2.33 2.96-3.89.14-.61.78-3.28-1.08-4.85-1.57-1.33-3.74-1.03-5.44-.8z" fill="#f6d2a2" stroke="#000" stroke-miterlimit="10" stroke-width=".25"/><path d="m301.51 107.16c-.14-.38-.31-1-.27-1.77.04-.67.23-1.21.38-1.56" fill="none" stroke="#000" stroke-miterlimit="10" stroke-width=".25"/><path d="m301.43 173.47c-1.47-.16-3.62-.4-4.93-2.03-1.35-1.7-.77-3.7-.69-3.96.65-2.16 2.7-3.06 3-3.18.16-.08.38-.17.66-.24.25-.05.46-.07.63-.06.86-.03 1.24.18 1.42.38 0 0 .06.07.42.73s.01-.01.21-.48c.05-.07.1-.14.14-.23.02-.04.04-.08.05-.11.05-.13.14-.3.32-.43.61-.46 1.66-.11 2.01 0 1.57.51 2.67 2.26 3.08 3.81.16.61.88 3.26-.93 4.87-1.5 1.36-3.68 1.12-5.39.93z" fill="#f6d2a2" stroke="#000" stroke-miterlimit="10" stroke-width=".25"/><path d="m302.01 164.97c-.13.39-.28 1.01-.21 1.78.06.67.26 1.2.43 1.55" fill="none" stroke="#000" stroke-miterlimit="10" stroke-width=".25"/><path d="m228.49 97.05c1.63-.02 2.97.98 2.99 2.23" fill="none" stroke="#000" stroke-miterlimit="10" stroke-width=".25"/><path d="m231.37 168.31c2.22-.03 4.01-.73 4-1.56" fill="none" stroke="#000" stroke-miterlimit="10" stroke-width=".25"/><path d="m752.14 160.73c4.85 3.01 13.74 12.1 6.45 16.51-6.98 6.42-10.93-7.05-17.08-8.89 2.38-3.86 6.21-6.6 10.63-7.62z" fill="#f6d2a2" stroke="#000" stroke-miterlimit="10" stroke-width=".25"/><path d="m696.89 172.59c-5.43.83-8.48 5.72-12.99 8.2-1.6 1.48-4.09 1.38-5.57-.22-.34-.37-.61-.8-.79-1.27-.64.02-1.25-.27-1.65-.76-3.94-6.35 4.1-10.77 8.32-13.88 5.95-1.15 9.6 3.9 12.68 7.93z" fill="#f6d2a2" stroke="#000" stroke-miterlimit="10" stroke-width=".25"/><path d="m748.08 25.79c17.37-11.22 33.34 16.18 11.88 22.12z" fill="#74cddd" stroke="#000" stroke-miterlimit="10" stroke-width=".25"/><circle cx="758.92" cy="35.99" r="4.46" stroke="#000" stroke-miterlimit="10" stroke-width=".25"/><path d="m668.54 52.19c-22.05-6.1-5.64-34.25 12.2-22.72z" fill="#74cddd" stroke="#000" stroke-miterlimit="10" stroke-width=".25"/><circle cx="671.64" cy="40.45" r="4.94" stroke="#000" stroke-miterlimit="10" stroke-width=".25"/><path d="m715.3 16.74c18.57 0 35.92 2.57 45.05 20.52 8.13 19.99 5.13 41.56 6.49 62.68 1.08 18.14 3.44 39.1-4.98 55.93-8.8 17.65-31.02 22.04-49.23 21.45-14.32-.51-31.61-5.13-39.69-18.27-9.49-15.39-5-38.17-4.31-55.24.82-20.22-5.49-40.51 1.15-60.32 6.9-20.52 25.48-25.17 45.49-26.76" fill="#74cddd" stroke="#000" stroke-miterlimit="10" stroke-width=".25"/><ellipse cx="694.81" cy="46.05" fill="#fff" rx="17.47" ry="16.41" stroke="#000" stroke-miterlimit="10" stroke-width=".25"/><ellipse cx="738.12" cy="44" fill="#fff" rx="17.47" ry="16.41" stroke="#000" stroke-miterlimit="10" stroke-width=".25"/><ellipse cx="738.12" cy="52.61" fill="#010101" rx="5.04" ry="5.56"/><ellipse cx="740.39" cy="53.87" fill="#fff" rx="1.18" ry="1.41"/><ellipse cx="696.89" cy="53.87" fill="#010101" rx="5.12" ry="5.56"/><ellipse cx="699.22" cy="55.14" fill="#fff" rx="1.21" ry="1.41"/><path d="m725.33 68.84c-.41-.43-.6-.21-3.21-.82-2.08-.49-3.12-.73-3.39-.9-.12-.08-.5-.35-.73-.21-.2.12-.19.48-.19.67.02.84-.03 1.68.02 2.52.01.1.01.8.03 2.19.01.89.01.85.02 1.38.04 2.46.09 2.77.17 3.05.15.57.31 1.21.86 1.8.75.82 1.73 1 2.36 1.11.72.13 1.43.27 2.14-.09.7-.34 1.01-.96 1.46-1.84.57-1.13.75-2.1.9-2.92.28-1.56.23-2.75.21-3.09-.09-1.53-.13-2.3-.65-2.85z" fill="#fff" stroke="#000" stroke-miterlimit="10" stroke-width=".25"/><path d="m710.43 68.7c.41-.43.6-.21 3.21-.82 2.08-.49 3.12-.73 3.39-.9.14-.09.52-.35.73-.21.19.13.12.53.09.81-.11.82 0 1.65-.02 2.48-.02.99 0 1.78.02 2.28.02.64.03.61.05 1.29.05 1.62.07 2.43-.08 2.99-.1.38-.31 1.11-.95 1.77-.8.82-1.79 1.01-2.36 1.11-.72.13-1.43.27-2.14-.09-.7-.34-1.01-.96-1.46-1.84-.57-1.13-.75-2.1-.9-2.92-.28-1.56-.23-2.75-.21-3.09.07-1.54.11-2.31.63-2.86z" fill="#fff" stroke="#000" stroke-miterlimit="10" stroke-width=".25"/><path d="m704.98 66.12c.03-.53.12-1.82.99-3.04.42-.59.87-.97 1.16-1.2.36-.29 1.15-.88 2.27-1.24.94-.31 1.7-.33 2.53-.34 3.14-.06 4.49-.05 5.49-.09 2.09-.08 2.08-.42 4.29-.51 2.06-.09 3.03.1 3.77.34 1.02.33 1.72.78 2.31 1.16.63.4 1.8 1.17 2.87 2.57.58.75.93 1.19 1.16 1.93.46 1.5-.04 2.8-.17 3.13-.15.38-.72 1.61-2.1 2.36-1.23.67-2.41.57-2.92.51-.65-.07-.67-.19-2.87-.94-1.3-.45-1.39-.44-2.44-.81-1.69-.6-1.79-.79-2.46-.95-1.45-.35-3.04.11-3.6.32-1.25.47-1.07.79-2.52 1.43-.71.31-1.7.74-3 .77-.83.02-2.13.06-3.22-.77-1.73-1.35-1.59-3.87-1.54-4.63z" fill="#f6d2a2" stroke="#000" stroke-miterlimit="10" stroke-width=".25"/><path d="m710.54 61.41c-.32-7.2 13.44-8.12 15.06-2.07 1.6 6.05-14.4 7.43-15.06 2.07z" fill="#010101"/><path d="m680.43 106.14c.2 1.49.5 3.67 2.36 4.96 1.93 1.34 4.18.72 4.46.64 2.42-.7 3.4-2.79 3.54-3.09.09-.16.19-.38.26-.67.06-.25.07-.47.06-.64.02-.88-.22-1.25-.45-1.43 0 0-.08-.06-.83-.41s.01-.01.54-.22c.07-.05.16-.1.25-.15.04-.02.08-.04.12-.06.14-.05.33-.15.48-.33.51-.62.1-1.69-.03-2.04-.6-1.59-2.59-2.67-4.34-3.06-.69-.16-3.68-.84-5.47 1.02-1.49 1.55-1.19 3.76-.95 5.48z" fill="#f6d2a2" stroke="#000" stroke-miterlimit="10" stroke-width=".25"/><path d="m689.99 105.41c-.43.14-1.13.3-2 .24-.76-.05-1.36-.25-1.75-.41" fill="none" stroke="#000" stroke-miterlimit="10" stroke-width=".25"/><path d="m764.62 106.57c-.2 1.49-.5 3.67-2.36 4.96-1.93 1.34-4.18.72-4.46.64-2.42-.7-3.4-2.79-3.54-3.09-.09-.16-.19-.38-.26-.67-.06-.25-.07-.47-.06-.64-.02-.88.22-1.25.45-1.43 0 0 .08-.06.83-.41s-.01-.01-.54-.22c-.07-.05-.16-.1-.25-.15-.04-.02-.08-.04-.12-.06-.14-.05-.33-.15-.48-.33-.51-.62-.1-1.69.03-2.04.6-1.59 2.59-2.67 4.34-3.06.69-.16 3.68-.84 5.47 1.02 1.49 1.55 1.18 3.75.95 5.48z" fill="#f6d2a2" stroke="#000" stroke-miterlimit="10" stroke-width=".25"/><path d="m755.06 105.84c.43.14 1.13.3 2 .24.76-.05 1.36-.25 1.75-.41" fill="none" stroke="#000" stroke-miterlimit="10" stroke-width=".25"/><path d="m677.55 179.29c0-1.65 1.14-2.99 2.56-2.99" fill="none" stroke="#000" stroke-miterlimit="10" stroke-width=".25"/><path d="m757.79 177.52c0-2.25-.76-4.08-1.7-4.08" fill="none" stroke="#000" stroke-miterlimit="10" stroke-width=".25"/><path d="m759.02 460.02c.75.46 1.24.47 1.54.41.54-.11.75-.53 1.44-1.22.25-.26 1.2-1.2 1.33-1.14.22.11-1.83 2.84-2.42 4.88-.26.91-.4 1.56-.4 1.56-.15.72-.13.82-.26 1.28-.25.87-.39 1.36-.93 1.71-.53.34-1.4.51-1.75.24-.54-.42.44-1.77.51-1.87.5-.68 1.11-1.08 1.33-1.22 2.48-1.61 3.73-2.42 4.42-3.09 1.35-1.3 1.57-2.31 2.57-2.36.59-.03 1.1.29 1.44.57" fill="none" stroke="#000" stroke-miterlimit="10" stroke-width=".25"/><path d="m760.7 463.91c.09-.05.39-.2.77-.17.3.03.64.18.77.4.3.48-.6.95-.94 2.21-.07.27-.27.98.06 1.13.3.13.88-.26 1.02-.37" fill="none" stroke="#000" stroke-miterlimit="10" stroke-width=".25"/><path d="m764.54 464.25c-.21.01-.56.04-.87.23-.45.28-.5.72-.58 1.37-.07.6-.11.97.21 1.27.02.02.39.35.83.29.34-.05.53-.32.73-.59 0 0 .19-.27.28-.58.01-.03.03-.12.04-.19.01-.06.01-.11.01-.11s0 0 0-.01c.01-.08-.06-.6-.08-.78-.03-.34.07-.44-.06-.62-.03-.04-.09-.13-.19-.14-.14-.01-.29.13-.35.26s.01.17.04.43c.05.35-.05.47.1.61.05.05.1.07.19.12.22.11.42.16.56.18" fill="none" stroke="#000" stroke-miterlimit="10" stroke-width=".25"/><path d="m767.95 461.32c-.04.11-.21.52-.25.62-.47 1.19-.47 1.19-.52 1.29-.49 1.14-.61.96-.77 1.56-.21.77.05.87-.25 1.52-.14.31-.33.58-.17.73.13.12.45.13.64.11.11-.01.21-.04.27-.06" fill="none" stroke="#000" stroke-miterlimit="10" stroke-width=".25"/><path d="m766.68 462.37c.1.05.79.37 1.39.14.08-.03.16-.07.25-.14" fill="none" stroke="#000" stroke-miterlimit="10" stroke-width=".25"/><path d="m767.75 464.99c.02.35-.02.64-.06.82-.08.42-.21.63-.12.98.03.1.11.41.33.44.18.03.37-.12.44-.18.11-.09.15-.16.23-.28.27-.4.3-.37.37-.5.18-.36.04-.76-.02-.76-.07 0-.05.67-.35 1.78-.2.74-.41 1.22-.91 1.48-.1.05-.34.18-.54.11-.18-.06-.27-.26-.25-.5" fill="none" stroke="#000" stroke-miterlimit="10" stroke-width=".25"/><path d="m770.72 465.09c-.2-.16-.65-.14-.91.01-.09.06-.24.19-.25 1.14-.01.92.13 1.02.21 1.05.21.09.55-.02.73-.17.13-.11.17-.24.21-.4.05-.19.02-.24.04-.5.03-.38.11-.43.1-.72-.01-.2-.02-.32-.13-.41z" fill="none" stroke="#000" stroke-miterlimit="10" stroke-width=".25"/><path d="m770.86 466.24c0-.15 0-.18 0-.18s.01.09.02.55c.01.28.01.36.1.44.01.01.14.12.33.12.18 0 .35-.11.42-.26" fill="none" stroke="#000" stroke-miterlimit="10" stroke-width=".25"/><g fill="#e6e6e6" opacity=".7"><path d="m185.96 86.19h435.14v91.89h-435.14z"/><path d="m185.96 249.7h435.14v91.89h-435.14z"/><path d="m185.96 413.22h435.14v91.89h-435.14z"/><path d="m621.09 413.22v91.89c11.12.55 101.54 3.66 148.65-59.46 7.05-9.45 25.19-33.75 25.68-68.92.5-36.26-18.09-61.73-24.32-70.27-46.87-64.22-141.91-57.45-150-56.76v91.89c44.95 2.08 75.54 20.74 75.68 35.14.13 14.44-30.31 33.81-75.69 36.49z"/><path d="m185.96 249.51v91.89c-11.12.55-101.54 3.66-148.65-59.46-7.05-9.45-25.19-33.75-25.68-68.92-.5-36.26 18.09-61.73 24.32-70.27 46.88-64.22 141.92-57.45 150.01-56.75v91.89c-44.95 2.08-75.54 20.74-75.68 35.14-.13 14.44 30.31 33.8 75.68 36.48z"/></g><path d="m589.17 112.69h-444.79c-3.54 0-6.44-2.9-6.44-6.44 0-3.54 2.9-6.44 6.44-6.44h444.79c3.54 0 6.44 2.9 6.44 6.44.01 3.54-2.89 6.44-6.44 6.44z" fill="#fff" opacity=".3"/><path d="m668.41 443.35h-444.79c-3.54 0-6.44-2.9-6.44-6.44 0-3.54 2.9-6.44 6.44-6.44h444.79c3.54 0 6.44 2.9 6.44 6.44 0 3.54-2.9 6.44-6.44 6.44z" fill="#fff" opacity=".3"/><path d="m611.92 276.01h-444.78c-3.54 0-6.44-2.9-6.44-6.44 0-3.54 2.9-6.44 6.44-6.44h444.79c3.54 0 6.44 2.9 6.44 6.44 0 3.54-2.9 6.44-6.45 6.44z" fill="#fff" opacity=".3"/><path d="m738.11 439.49c-3.11 0-5.65-2.54-5.65-5.65 25.19-12.34 41.22-38.06 41.21-66.11-.01-28.03-16.04-53.72-41.21-66.06 0-.38.05-2.38 1.66-3.99 1.02-1.02 2.44-1.66 3.99-1.66 3.11 0 5.65 2.54 5.65 5.65 26.51 16.78 41.13 46.55 37.36 76.08-4.53 35.46-33.45 53.71-37.36 56.09-.63 3.28-3.08 5.65-5.65 5.65z" fill="#fff" opacity=".2"/><path d="m66.86 275.67c3.11 0 5.65-2.54 5.65-5.65-25.19-12.34-41.22-38.06-41.21-66.11.01-28.03 16.04-53.72 41.21-66.06 0-.38-.05-2.38-1.66-3.99-1.02-1.02-2.44-1.66-3.99-1.66-3.11 0-5.65 2.54-5.65 5.65-26.51 16.78-41.13 46.55-37.36 76.08 4.53 35.46 33.45 53.71 37.36 56.09.63 3.28 3.08 5.65 5.65 5.65z" fill="#fff" opacity=".2"/></svg>